<?xml version="1.0" encoding="utf-8"?>
<!-- Generator: Adobe Illustrator 24.0.0, SVG Export Plug-In . SVG Version: 6.00 Build 0)  -->
<svg version="1.1" xmlns="http://www.w3.org/2000/svg" xmlns:xlink="http://www.w3.org/1999/xlink" x="0px" y="0px"
	 viewBox="0 0 256 256" enable-background="new 0 0 256 256" xml:space="preserve">
<g id="Layer_2">
</g>
<g id="Layer_1">
	<g>
	</g>
	<g>
		<path fill="#AFAFAF" d="M175.001,45.116l6.354-3.666c-2.22-5.918-5.397-11.369-9.348-16.158l-6.348,3.666
			c-7.192-8.321-17.088-14.229-28.328-16.362V5.264c-6.127-1.019-12.55-1.017-18.663,0v7.332
			c-11.24,2.134-21.135,8.041-28.328,16.362l-6.348-3.666c-3.951,4.789-7.128,10.24-9.348,16.158l6.354,3.666
			c-3.655,10.503-3.698,22.098,0,32.724l-6.354,3.666c2.22,5.918,5.397,11.369,9.348,16.158l6.348-3.666
			c7.192,8.321,17.088,14.228,28.328,16.362v13.205h-6.885l16.017,18.102l16.017-18.102h-6.487V110.36
			c11.24-2.134,21.135-8.041,28.328-16.362l6.348,3.666c3.951-4.789,7.128-10.24,9.348-16.158l-6.354-3.666
			C178.656,67.337,178.699,55.743,175.001,45.116z"/>
		<path fill="#72C2E9" d="M221.03,228.76V250H34.97v-21.24c0-12.54,10.17-22.71,22.71-22.71h18.74c4.68,0,9.02,1.41,12.63,3.84
			c2.21,1.48,4.15,3.35,5.73,5.5c4.13-4.37,9.97-7.08,16.47-7.08h33.5c6.5,0,12.34,2.71,16.47,7.08c1.56-2.14,3.51-4.02,5.72-5.5
			c3.61-2.42,7.96-3.84,12.64-3.84h18.74C210.86,206.05,221.03,216.22,221.03,228.76z"/>
		<path fill="#4BA5C8" d="M94.78,215.39c-3.87,4.06-6.24,9.57-6.24,15.63V250h-7.95v-18.98c0-7.91,3-15.41,8.45-21.12l0.01-0.01
			C91.26,211.37,93.2,213.24,94.78,215.39z"/>
		<path fill="#4BA5C8" d="M175.41,231.02V250h-7.95v-18.98c0-6.06-2.37-11.57-6.24-15.63c1.56-2.14,3.51-4.02,5.72-5.5
			c0.02,0.02,0.03,0.03,0.06,0.05C172.41,215.61,175.41,223.11,175.41,231.02z"/>
		<path fill="#FFB69F" d="M127.286,208.309L127.286,208.309c-10.036,0-18.171-8.135-18.171-18.171v-14.303h37.4v13.245
			C146.514,199.7,137.905,208.309,127.286,208.309z"/>
		<path fill="#7C7B7A" d="M149.807,152.559l-8.068,4.21c-2.073,1.082-4.376,1.647-6.714,1.647h-17.281
			c-5.998,0-10.571,5.369-9.617,11.291l0.988,6.128h37.4h0c5.791-6.171,7.176-15.275,3.48-22.888L149.807,152.559z"/>
		<path fill="#FFB69F" d="M66.831,206.049L66.831,206.049c-8.889,0-16.094-7.206-16.094-16.094v-11.857h32.188v11.857
			C82.925,198.843,75.72,206.049,66.831,206.049z"/>
		<path fill="#7C7B7A" d="M82.927,178.098H50.732l-0.84-5.271c-0.67-4.111,1.76-7.904,5.428-9.21
			c1.749-0.681,1.622-0.511,17.716-0.511c2.01,0,3.997-0.488,5.78-1.42l6.939-3.623C89.259,165.071,87.791,172.915,82.927,178.098z"
			/>
		<path fill="#FFB69F" d="M188.914,206.049L188.914,206.049c-8.889,0-16.094-7.206-16.094-16.094v-11.857h32.188v11.857
			C205.009,198.843,197.803,206.049,188.914,206.049z"/>
		<path fill="#7C7B7A" d="M205.007,178.098h-32.184l-0.852-5.271c-0.818-5.099,3.112-9.721,8.279-9.721h14.865
			c1.772,0,3.498-0.375,5.099-1.09c0.587-0.264,7.046-3.647,7.631-3.952C211.405,165.688,209.673,173.126,205.007,178.098z"/>
		<path fill="#EFC020" d="M128,34.667c-14.81,0-26.815,12.005-26.815,26.815c0,17.249,16.134,30.148,33.056,26.081
			c11.384-2.615,20.575-13.106,20.575-26.081C154.815,46.672,142.81,34.667,128,34.667z"/>
		<g>
			<g>
				<path fill="#EFEFEF" d="M128.864,102.87c-4.425,0-8.787-0.714-12.964-2.121c-1.308-0.44-2.012-1.858-1.571-3.167
					s1.859-2.009,3.167-1.571c3.662,1.233,7.487,1.859,11.368,1.859c19.635,0,35.526-15.89,35.526-35.528
					c0-9.489-3.695-18.411-10.405-25.121c-0.976-0.977-0.976-2.56,0-3.535c0.976-0.977,2.559-0.977,3.536,0
					c7.654,7.654,11.869,17.831,11.869,28.656C169.391,84.738,151.268,102.87,128.864,102.87z M106.364,96.059
					c-2.199-1.471-4.271-3.173-6.157-5.06c-0.976-0.977-0.976-2.56,0-3.535c0.977-0.978,2.559-0.977,3.536,0
					c1.656,1.656,3.472,3.149,5.4,4.438c1.148,0.768,1.456,2.32,0.688,3.468C109.065,96.516,107.513,96.827,106.364,96.059z"/>
			</g>
			<path d="M38.96,221.12c0.519-1.24-0.045-2.722-1.36-3.261c-1.26-0.51-2.75,0.12-3.26,1.36c0,0,0,0,0,0.01
				c-0.52,1.271,0.09,2.73,1.36,3.261C36.965,222.992,38.434,222.419,38.96,221.12z"/>
			<path d="M32.47,229.95V250c0,1.38,1.12,2.5,2.5,2.5s2.5-1.12,2.5-2.5v-20.05c0-1.381-1.12-2.5-2.5-2.5
				S32.47,228.569,32.47,229.95z"/>
			<path d="M40.48,213.729c0.89,0.971,2.55,1.04,3.53,0.15c3.74-3.44,8.6-5.33,13.67-5.33h18.74c5.902,0,11.305,2.522,15.095,6.788
				c-3.543,4.438-5.475,9.926-5.475,15.682V250c0,1.381,1.119,2.5,2.5,2.5s2.5-1.119,2.5-2.5v-18.98
				c0-10.996,8.854-20.21,20.21-20.21h33.5c11.343,0,20.21,9.2,20.21,20.21V250c0,1.381,1.119,2.5,2.5,2.5s2.5-1.119,2.5-2.5v-18.98
				c0-5.759-1.934-11.25-5.476-15.684c4.004-4.491,9.496-6.786,15.096-6.786h18.74c11.144,0,20.21,9.066,20.21,20.21V250
				c0,1.381,1.119,2.5,2.5,2.5s2.5-1.119,2.5-2.5v-21.24c0-12.875-9.703-23.519-22.18-25.021c3.771-3.406,6.159-8.315,6.159-13.784
				v-10.926c5.142-6.061,6.161-14.398,2.604-22.023c-0.605-1.297-2.169-1.814-3.423-1.158c-0.566,0.296-6.915,3.617-7.494,3.886
				c-1.296,0.579-2.669,0.873-4.079,0.873H180.25c-6.699,0-11.81,5.996-10.747,12.619l0.816,5.051v11.679
				c0,5.477,2.394,10.393,6.175,13.799c-5.796,0.709-11.266,3.371-15.495,7.993c-4.523-3.844-10.196-5.936-16.25-5.936h-3.615
				c4.81-3.989,7.879-10.007,7.879-16.729v-12.315c5.626-6.574,7.424-16.26,3.042-25.298c-0.618-1.274-2.162-1.773-3.406-1.125
				l-8.067,4.21c-1.709,0.892-3.632,1.363-5.558,1.363h-17.281c-7.539,0-13.283,6.753-12.085,14.188l0.956,5.932v14.102
				c0,6.266,2.813,11.878,7.229,15.672h-2.594c-6.058,0-11.734,2.094-16.254,5.938c-4.188-4.574-9.671-7.341-15.716-8.021
				c3.763-3.405,6.146-8.31,6.146-13.772v-10.923c5.224-6.156,6.256-14.708,2.565-22.087c-0.624-1.249-2.155-1.746-3.393-1.098
				l-6.939,3.623c-1.422,0.743-3.021,1.136-4.623,1.136c-3.211,0-5.776-0.007-7.838-0.013c-8.609-0.019-8.945-0.023-10.716,0.668
				c-4.933,1.756-7.901,6.789-7.059,11.959l0.814,5.109v11.625c0,5.492,2.408,10.42,6.206,13.828
				c-5.138,0.661-9.962,2.865-13.813,6.418C39.61,211.13,39.54,212.71,40.48,213.729z M180.25,165.605h14.865
				c2.118,0,4.177-0.44,6.125-1.311c0.241-0.108,1.099-0.537,5.283-2.721c1.527,5.034,0.593,10.083-2.646,14.023h-28.926
				l-0.512-3.167C173.865,168.839,176.636,165.605,180.25,165.605z M175.32,189.954v-9.356h27.188v9.356
				c0,7.496-6.098,13.595-13.594,13.595S175.32,197.45,175.32,189.954z M117.744,160.916h17.281c2.728,0,5.45-0.667,7.871-1.931
				l5.669-2.959c2.012,5.875,0.822,12.503-3.176,17.309h-34.145l-0.649-4.026C109.885,164.906,113.29,160.916,117.744,160.916z
				 M111.615,190.138v-11.803h32.399v10.745c0,9.225-7.504,16.729-16.729,16.729C118.645,205.809,111.615,198.778,111.615,190.138z
				 M56.228,165.945c0.922-0.359,0.957-0.37,8.956-0.353c2.066,0.006,4.635,0.013,7.852,0.013c2.405,0,4.804-0.589,6.938-1.704
				l4.503-2.352c1.524,4.867,0.555,10.093-2.68,14.048H52.864l-0.506-3.174C51.903,169.631,53.501,166.917,56.228,165.945z
				 M53.237,189.954v-9.356h27.188v9.356c0,7.496-6.098,13.595-13.594,13.595S53.237,197.45,53.237,189.954z"/>
			<path d="M127.82,199.674c5.732,0,10.396-4.664,10.396-10.396c0-1.381-1.119-2.5-2.5-2.5s-2.5,1.119-2.5,2.5
				c0,2.976-2.421,5.396-5.396,5.396c-2.976,0-5.397-2.421-5.397-5.396c0-1.381-1.119-2.5-2.5-2.5s-2.5,1.119-2.5,2.5
				C117.423,195.01,122.087,199.674,127.82,199.674z"/>
			<path d="M66.835,198.965c5.126,0,9.296-4.17,9.296-9.296c0-1.381-1.119-2.5-2.5-2.5s-2.5,1.119-2.5,2.5
				c0,2.369-1.927,4.296-4.296,4.296s-4.296-1.927-4.296-4.296c0-1.381-1.119-2.5-2.5-2.5s-2.5,1.119-2.5,2.5
				C57.539,194.795,61.709,198.965,66.835,198.965z"/>
			<path d="M188.918,198.965c5.126,0,9.296-4.17,9.296-9.296c0-1.381-1.119-2.5-2.5-2.5s-2.5,1.119-2.5,2.5
				c0,2.369-1.927,4.296-4.296,4.296c-2.369,0-4.296-1.927-4.296-4.296c0-1.381-1.119-2.5-2.5-2.5s-2.5,1.119-2.5,2.5
				C179.623,194.795,183.792,198.965,188.918,198.965z"/>
			<path d="M47.89,235.57V250c0,1.381,1.119,2.5,2.5,2.5s2.5-1.119,2.5-2.5v-14.43c0-1.381-1.119-2.5-2.5-2.5
				S47.89,234.189,47.89,235.57z"/>
			<path d="M203.11,235.57V250c0,1.381,1.119,2.5,2.5,2.5s2.5-1.119,2.5-2.5v-14.43c0-1.381-1.119-2.5-2.5-2.5
				S203.11,234.189,203.11,235.57z"/>
			<path d="M102.29,235.57V250c0,1.381,1.119,2.5,2.5,2.5s2.5-1.119,2.5-2.5v-14.43c0-1.381-1.119-2.5-2.5-2.5
				S102.29,234.189,102.29,235.57z"/>
			<path d="M148.71,235.57V250c0,1.381,1.119,2.5,2.5,2.5s2.5-1.119,2.5-2.5v-14.43c0-1.381-1.119-2.5-2.5-2.5
				S148.71,234.189,148.71,235.57z"/>
			<path d="M104.98,47.5c1.118,0.831,2.687,0.569,3.5-0.521c0.813-1.076,0.598-2.683-0.52-3.489c-1.08-0.801-2.7-0.561-3.5,0.51
				C103.651,45.12,103.86,46.67,104.98,47.5z"/>
			<path d="M128,32.17c-5.53,0-10.9,1.54-15.56,4.46c-1.16,0.729-1.52,2.28-0.78,3.45c0.71,1.13,2.31,1.5,3.44,0.779
				c3.86-2.409,8.32-3.689,12.9-3.699c13.38,0.029,24.29,10.939,24.31,24.319c0.023,13.05-10.491,24.34-24.39,24.34
				c-15.854-0.035-27.571-15.211-23.39-30.739c0.36-1.33-0.42-2.7-1.75-3.061c-1.31-0.359-2.72,0.45-3.07,1.75
				c-5.144,18.907,9.291,37.05,28.21,37.05c16.252,0,29.39-13.094,29.39-29.34C157.31,45.272,144.203,32.17,128,32.17z"/>
			<path d="M150.13,103.24c-1.22,0.649-1.69,2.17-1.04,3.39c0.644,1.211,2.159,1.673,3.38,1.03c1.22-0.65,1.68-2.16,1.04-3.38
				C152.837,103.027,151.319,102.611,150.13,103.24z"/>
			<path d="M72.31,82.38c2.29,6.13,5.58,11.81,9.76,16.87c0.75,0.92,2.14,1.17,3.17,0.58l4.6-2.65
				c7.12,7.61,16.22,12.87,26.33,15.21v8.67h-4.39c-2.136,0-3.302,2.553-1.87,4.16l16.02,18.1c0.976,1.121,2.763,1.122,3.74,0
				l16.02-18.1c1.422-1.596,0.287-4.16-1.87-4.16h-3.99v-8.67c0.98-0.229,1.97-0.49,2.93-0.77c1.32-0.391,2.08-1.78,1.69-3.11
				c-0.38-1.28-1.81-2.07-3.1-1.69c-1.45,0.431-2.96,0.79-4.48,1.08c-1.18,0.23-2.04,1.261-2.04,2.46v13.2
				c0,1.392,1.128,2.51,2.5,2.51h0.94l-10.47,11.82l-10.46-11.83l1.33,0.01c1.349,0,2.5-1.096,2.5-2.51v-13.2
				c0-1.199-0.86-2.229-2.04-2.46c-10.38-1.97-19.94-7.489-26.9-15.54c-0.76-0.88-2.13-1.109-3.14-0.529l-4.48,2.59
				c-2.77-3.63-5.07-7.61-6.84-11.83L82.25,80c1.04-0.59,1.5-1.851,1.11-2.98c-3.511-10.089-3.48-21.102,0-31.08
				c0.39-1.14-0.07-2.39-1.11-2.989l-4.48-2.591c1.77-4.21,4.07-8.189,6.84-11.819l4.48,2.58c1.01,0.59,2.38,0.35,3.14-0.53
				c6.96-8.05,16.52-13.57,26.9-15.54c1.18-0.22,2.04-1.26,2.04-2.45V7.42c4.47-0.561,9.14-0.561,13.66,0v5.18
				c0,1.19,0.86,2.23,2.04,2.45c10.39,1.97,19.94,7.49,26.9,15.54c0.76,0.88,2.13,1.12,3.14,0.53l4.48-2.58
				c2.77,3.63,5.07,7.609,6.84,11.819l-4.48,2.591c-1.04,0.6-1.5,1.85-1.11,2.989c3.488,10.003,3.502,21.018,0,31.08
				c-0.4,1.13,0.07,2.38,1.11,2.98l4.48,2.59c-1.77,4.21-4.07,8.19-6.84,11.83l-4.48-2.59c-1.01-0.58-2.38-0.351-3.14,0.529
				c-1.76,2.03-3.69,3.921-5.76,5.62c-1.046,0.862-1.23,2.417-0.34,3.521c0.84,1.02,2.5,1.189,3.52,0.34
				c1.75-1.44,3.43-3.01,4.97-4.66l4.6,2.65c1.03,0.59,2.42,0.34,3.18-0.58c4.17-5.061,7.46-10.73,9.75-16.87
				c0.44-1.15-0.02-2.43-1.09-3.04l-4.59-2.65c2.95-9.759,3.053-20.375-0.01-30.42l4.6-2.649c1.07-0.62,1.53-1.9,1.09-3.051
				c-2.29-6.13-5.58-11.8-9.75-16.869c-0.76-0.91-2.15-1.17-3.18-0.57l-4.6,2.65c-7.12-7.61-16.22-12.87-26.33-15.211V5.26
				c0-1.229-0.88-2.26-2.09-2.46c-6.41-1.07-13.14-1.06-19.48,0c-1.21,0.2-2.09,1.23-2.09,2.46v5.31
				C106.06,12.91,96.96,18.17,89.84,25.78l-4.6-2.65c-1.03-0.6-2.42-0.34-3.17,0.57c-4.18,5.069-7.47,10.739-9.76,16.869
				C71.87,41.72,72.33,43,73.4,43.62l4.59,2.649c-2.989,9.871-3.012,20.454,0,30.42l-4.59,2.65
				C72.33,79.95,71.87,81.229,72.31,82.38z"/>
			<path d="M126.081,70.133l13.746-13.746c0.977-0.977,0.977-2.559,0-3.535c-0.976-0.977-2.56-0.977-3.535,0L124.313,64.83
				l-4.605-4.605c-0.976-0.977-2.56-0.977-3.535,0c-0.977,0.977-0.977,2.559,0,3.535l6.373,6.373
				C123.522,71.109,125.105,71.109,126.081,70.133z"/>
		</g>
	</g>
</g>
</svg>
