<?xml version="1.0" encoding="UTF-8"?>
<!DOCTYPE svg PUBLIC "-//W3C//DTD SVG 1.1//EN" "http://www.w3.org/Graphics/SVG/1.1/DTD/svg11.dtd">
<!-- Creator: CorelDRAW -->
<svg xmlns="http://www.w3.org/2000/svg" xml:space="preserve" width="2048px" height="2048px" style="shape-rendering:geometricPrecision; text-rendering:geometricPrecision; image-rendering:optimizeQuality; fill-rule:evenodd; clip-rule:evenodd"
viewBox="0 0 2048 2048"
 xmlns:xlink="http://www.w3.org/1999/xlink">
 <defs>
  <style type="text/css">
   <![CDATA[
    .fil2 {fill:none}
    .fil1 {fill:#4DD0E1}
    .fil8 {fill:#4E342E}
    .fil6 {fill:#6D4C41}
    .fil9 {fill:#795548}
    .fil0 {fill:#80DEEA}
    .fil4 {fill:#C9B8A6}
    .fil5 {fill:#D6CBB7}
    .fil3 {fill:#FEE8CD}
    .fil7 {fill:#FFA000}
   ]]>
  </style>
   <clipPath id="id0">
    <path d="M1024 -0.0011811c565.539,0 1024,458.462 1024,1024 0,565.539 -458.462,1024 -1024,1024 -565.539,0 -1024,-458.462 -1024,-1024 0,-565.539 458.462,-1024 1024,-1024z"/>
   </clipPath>
 </defs>
 <g id="Layer_x0020_1">
  <metadata id="CorelCorpID_0Corel-Layer"/>
  <path class="fil0" d="M1024 -0.0011811c565.539,0 1024,458.462 1024,1024 0,565.539 -458.462,1024 -1024,1024 -565.539,0 -1024,-458.462 -1024,-1024 0,-565.539 458.462,-1024 1024,-1024z"/>
  <g style="clip-path:url(#id0)">
   <g id="_289373048">
    <g>
     <polygon id="_2926598241" class="fil1" points="1250.65,696.612 2386.53,1832.49 2386.68,2204.25 1250.8,1068.37 "/>
     <polygon id="_292659416" class="fil1" points="1288.85,1077.65 2424.73,2213.53 2425.39,2214.31 2425.97,2215.12 2426.48,2215.98 2426.9,2216.88 1291.02,1081 1290.6,1080.1 1290.09,1079.24 1289.51,1078.43 "/>
     <polygon id="_292660232" class="fil1" points="1291.02,1081 2426.9,2216.88 2427.57,2218.23 2428.24,2219.6 2428.91,2221.01 2429.58,2222.43 2430.25,2223.87 2430.92,2225.34 2431.59,2226.81 2432.26,2228.31 2432.94,2229.82 2433.61,2231.34 2434.29,2232.87 2434.96,2234.4 2435.63,2235.94 2436.31,2237.49 2436.98,2239.04 2437.65,2240.59 1301.77,1104.71 1301.1,1103.16 1300.43,1101.61 1299.75,1100.06 1299.08,1098.52 1298.4,1096.98 1297.73,1095.45 1297.06,1093.93 1296.38,1092.43 1295.71,1090.93 1295.04,1089.45 1294.37,1087.99 1293.7,1086.55 1293.02,1085.12 1292.35,1083.72 1291.69,1082.35 "/>
     <polygon id="_292660568" class="fil1" points="1301.77,1104.71 2437.65,2240.59 2438.41,2242.34 2439.17,2244.08 2439.93,2245.82 2440.68,2247.54 2441.43,2249.25 2442.18,2250.95 2442.93,2252.63 2443.68,2254.28 2444.42,2255.91 2445.16,2257.52 2445.89,2259.09 2446.62,2260.64 2447.35,2262.14 2448.07,2263.61 2448.78,2265.03 2449.49,2266.42 2450.2,2267.75 2450.9,2269.04 2451.59,2270.27 2452.27,2271.45 2452.95,2272.57 2453.62,2273.62 2454.29,2274.62 2454.94,2275.54 2455.59,2276.4 2456.23,2277.18 2456.86,2277.89 1320.98,1142.01 1320.35,1141.3 1319.71,1140.52 1319.06,1139.66 1318.41,1138.73 1317.74,1137.74 1317.07,1136.68 1316.39,1135.56 1315.71,1134.39 1315.02,1133.16 1314.32,1131.87 1313.61,1130.54 1312.9,1129.15 1312.19,1127.73 1311.47,1126.26 1310.74,1124.75 1310.01,1123.21 1309.28,1121.64 1308.54,1120.03 1307.8,1118.4 1307.05,1116.74 1306.3,1115.07 1305.55,1113.37 1304.8,1111.66 1304.05,1109.93 1303.29,1108.2 1302.53,1106.46 "/>
     <polygon id="_292660496" class="fil1" points="1433.77,1149.33 2569.65,2285.21 2570.85,2286.49 2572.04,2287.78 2573.23,2289.09 2574.42,2290.42 2575.61,2291.77 2576.8,2293.13 2577.99,2294.51 2579.17,2295.9 2580.35,2297.32 2581.53,2298.74 2582.71,2300.19 2583.89,2301.65 1448.01,1165.77 1446.83,1164.31 1445.65,1162.86 1444.47,1161.43 1443.29,1160.02 1442.1,1158.62 1440.92,1157.25 1439.73,1155.88 1438.54,1154.54 1437.35,1153.21 1436.16,1151.9 1434.96,1150.6 "/>
     <polygon id="_292660400" class="fil1" points="1448.82,1165.79 2584.7,2301.67 2585.09,2302.12 2585.47,2302.81 2585.82,2303.72 2586.15,2304.8 2586.44,2306.03 2586.69,2307.37 2586.89,2308.78 2587.04,2310.24 2587.13,2311.7 2587.16,2313.15 2587.11,2314.53 2586.98,2315.82 2586.76,2316.98 2586.46,2317.98 1450.58,1182.1 1450.88,1181.1 1451.1,1179.94 1451.23,1178.65 1451.27,1177.26 1451.25,1175.82 1451.16,1174.36 1451.01,1172.9 1450.81,1171.48 1450.56,1170.14 1450.27,1168.92 1449.94,1167.83 1449.58,1166.93 1449.21,1166.24 "/>
     <polygon id="_292660592" class="fil1" points="1450.58,1182.1 2586.46,2317.98 2586,2319.29 2585.52,2320.61 2585.03,2321.96 2584.53,2323.32 2584.01,2324.7 2583.47,2326.1 2582.93,2327.51 2582.38,2328.94 2581.81,2330.37 2581.24,2331.82 2580.67,2333.28 2580.08,2334.74 2579.5,2336.21 2578.91,2337.68 2578.31,2339.16 2577.72,2340.63 1441.84,1204.75 1442.43,1203.27 1443.02,1201.8 1443.62,1200.33 1444.2,1198.86 1444.79,1197.39 1445.36,1195.94 1445.93,1194.49 1446.5,1193.05 1447.05,1191.63 1447.59,1190.22 1448.12,1188.82 1448.65,1187.44 1449.15,1186.07 1449.64,1184.73 1450.12,1183.4 "/>
     <polygon id="_292660880" class="fil1" points="1441.84,1204.75 2577.72,2340.63 2577,2342.43 2576.28,2344.22 2575.56,2346.01 2574.85,2347.8 2574.14,2349.57 2573.45,2351.33 2572.77,2353.08 2572.1,2354.81 2571.44,2356.52 2570.8,2358.22 2570.19,2359.88 2569.59,2361.53 2569.01,2363.14 2568.46,2364.72 2567.94,2366.27 2567.44,2367.79 2566.98,2369.27 2566.55,2370.7 2566.15,2372.1 2565.78,2373.45 2565.46,2374.75 2565.17,2376 2564.93,2377.2 2564.73,2378.35 2564.58,2379.44 2564.47,2380.47 2564.41,2381.44 2564.41,2382.34 2564.46,2383.18 2564.56,2383.95 2564.72,2384.65 2564.94,2385.28 1429.06,1249.39 1428.84,1248.77 1428.68,1248.07 1428.58,1247.3 1428.53,1246.46 1428.53,1245.56 1428.59,1244.59 1428.7,1243.56 1428.85,1242.47 1429.05,1241.32 1429.29,1240.12 1429.58,1238.87 1429.9,1237.56 1430.27,1236.21 1430.66,1234.82 1431.1,1233.38 1431.56,1231.91 1432.06,1230.39 1432.58,1228.84 1433.13,1227.26 1433.71,1225.64 1434.3,1224 1434.92,1222.33 1435.56,1220.64 1436.22,1218.93 1436.89,1217.2 1437.57,1215.45 1438.26,1213.69 1438.97,1211.91 1439.68,1210.13 1440.39,1208.34 1441.11,1206.55 "/>
     <polygon id="_292660688" class="fil1" points="1429.06,1249.39 2564.94,2385.28 2565.23,2385.86 2565.61,2386.45 2566.07,2387.05 2566.62,2387.66 1430.74,1251.78 1430.19,1251.17 1429.73,1250.57 1429.35,1249.98 "/>
     <polygon id="_292660448" class="fil1" points="1498.37,1287.16 2634.26,2423.04 2635.88,2425.11 2637.15,2427.35 2638.02,2429.77 2638.46,2432.39 1502.57,1296.51 1502.14,1293.89 1501.27,1291.47 1500,1289.23 "/>
     <polygon id="_292660856" class="fil1" points="1502.57,1296.51 2638.46,2432.39 2638.62,2433.76 2638.8,2435.34 2639.01,2437.12 2639.23,2439.09 2639.46,2441.21 2639.69,2443.49 2639.92,2445.91 2640.14,2448.44 2640.35,2451.09 2640.54,2453.82 2640.7,2456.63 2640.84,2459.49 2640.93,2462.41 2640.99,2465.35 2640.99,2468.3 2640.95,2471.26 2640.84,2474.19 2640.67,2477.1 2640.43,2479.96 2640.11,2482.75 2639.71,2485.47 2639.22,2488.1 2638.64,2490.61 2637.96,2493.01 2637.17,2495.26 2636.28,2497.36 2635.27,2499.29 2634.13,2501.04 2632.87,2502.59 2631.48,2503.92 2629.94,2505.02 2628.27,2505.88 1492.39,1370 1494.06,1369.14 1495.6,1368.04 1496.99,1366.71 1498.25,1365.16 1499.39,1363.41 1500.4,1361.48 1501.29,1359.38 1502.08,1357.12 1502.76,1354.73 1503.34,1352.21 1503.83,1349.59 1504.23,1346.87 1504.55,1344.07 1504.79,1341.21 1504.96,1338.31 1505.06,1335.37 1505.11,1332.42 1505.11,1329.46 1505.05,1326.52 1504.95,1323.61 1504.82,1320.74 1504.66,1317.94 1504.47,1315.2 1504.26,1312.56 1504.04,1310.03 1503.81,1307.61 1503.58,1305.33 1503.34,1303.2 1503.13,1301.24 1502.92,1299.46 1502.73,1297.88 "/>
     <polygon id="_292660184" class="fil1" points="1492.39,1370 2628.27,2505.88 2626.92,2506.55 2625.54,2507.22 2624.14,2507.89 2622.72,2508.56 2621.27,2509.23 2619.81,2509.9 2618.33,2510.57 2616.84,2511.25 2615.33,2511.92 2613.81,2512.59 2612.28,2513.27 2610.74,2513.94 2609.2,2514.62 2607.65,2515.29 2606.11,2515.96 2604.55,2516.64 1468.67,1380.75 1470.22,1380.08 1471.77,1379.41 1473.32,1378.73 1474.86,1378.06 1476.4,1377.39 1477.93,1376.71 1479.45,1376.04 1480.95,1375.37 1482.45,1374.69 1483.93,1374.02 1485.39,1373.35 1486.83,1372.68 1488.26,1372 1489.66,1371.34 1491.03,1370.67 "/>
     <polygon id="_292660472" class="fil1" points="1468.67,1380.75 2604.55,2516.64 2602.81,2517.4 2601.07,2518.15 2599.33,2518.91 2597.61,2519.66 2595.89,2520.42 2594.2,2521.17 2592.52,2521.91 2590.86,2522.66 2589.23,2523.4 2587.63,2524.14 2586.05,2524.87 2584.51,2525.6 2583,2526.33 2581.54,2527.05 2580.11,2527.77 2578.73,2528.48 2577.39,2529.18 2576.11,2529.88 2574.88,2530.57 2573.7,2531.26 2572.58,2531.94 2571.52,2532.61 2570.53,2533.27 2569.6,2533.93 2568.75,2534.57 2567.96,2535.21 2567.25,2535.84 2566.62,2536.46 2566.07,2537.08 2565.61,2537.68 2565.23,2538.27 2564.94,2538.85 1429.06,1402.97 1429.35,1402.39 1429.73,1401.79 1430.19,1401.19 1430.74,1400.58 1431.37,1399.96 1432.08,1399.33 1432.86,1398.69 1433.72,1398.04 1434.65,1397.39 1435.64,1396.72 1436.7,1396.05 1437.82,1395.37 1438.99,1394.69 1440.23,1394 1441.51,1393.3 1442.85,1392.59 1444.23,1391.88 1445.66,1391.17 1447.12,1390.45 1448.63,1389.72 1450.17,1388.99 1451.75,1388.26 1453.35,1387.52 1454.98,1386.78 1456.64,1386.03 1458.32,1385.28 1460.01,1384.53 1461.72,1383.78 1463.45,1383.03 1465.18,1382.27 1466.93,1381.51 "/>
     <polygon id="_292661456" class="fil1" points="1429.06,1402.97 2564.94,2538.85 2564.72,2539.48 2564.56,2540.17 2564.46,2540.94 2564.41,2541.78 2564.41,2542.69 2564.47,2543.66 2564.58,2544.69 2564.73,2545.78 2564.93,2546.92 2565.17,2548.12 2565.46,2549.38 2565.78,2550.68 2566.15,2552.03 2566.55,2553.42 2566.98,2554.86 2567.44,2556.34 2567.94,2557.85 2568.46,2559.4 2569.01,2560.99 2569.59,2562.6 2570.19,2564.24 2570.81,2565.91 2571.44,2567.6 2572.1,2569.32 2572.77,2571.05 2573.45,2572.79 2574.14,2574.56 2574.85,2576.33 2575.56,2578.11 2576.28,2579.9 2577,2581.69 2577.72,2583.49 1441.84,1447.61 1441.12,1445.81 1440.4,1444.02 1439.68,1442.23 1438.97,1440.45 1438.26,1438.67 1437.57,1436.91 1436.89,1435.16 1436.22,1433.43 1435.56,1431.72 1434.92,1430.03 1434.31,1428.36 1433.71,1426.72 1433.13,1425.1 1432.58,1423.52 1432.06,1421.97 1431.56,1420.46 1431.1,1418.98 1430.66,1417.54 1430.27,1416.15 1429.9,1414.8 1429.58,1413.49 1429.29,1412.24 1429.05,1411.04 1428.85,1409.89 1428.7,1408.8 1428.59,1407.77 1428.53,1406.81 1428.53,1405.9 1428.58,1405.06 1428.68,1404.29 1428.84,1403.59 "/>
     <polygon id="_292661192" class="fil1" points="1441.84,1447.61 2577.72,2583.49 2578.33,2585.01 2578.94,2586.53 2579.55,2588.05 2580.16,2589.56 2580.76,2591.07 2581.35,2592.57 2581.94,2594.06 2582.51,2595.53 2583.08,2597 2583.64,2598.45 2584.18,2599.88 2584.71,2601.3 2585.23,2602.7 2585.73,2604.08 2586.21,2605.43 2586.68,2606.76 1450.79,1470.88 1450.33,1469.55 1449.85,1468.19 1449.35,1466.82 1448.83,1465.42 1448.3,1464 1447.76,1462.57 1447.2,1461.12 1446.63,1459.65 1446.05,1458.17 1445.47,1456.69 1444.87,1455.19 1444.27,1453.68 1443.67,1452.17 1443.06,1450.65 1442.45,1449.13 "/>
     <polygon id="_292661216" class="fil1" points="1451.22,1470.92 2587.11,2606.8 2587.43,2607.14 2587.64,2607.73 2587.76,2608.56 2587.77,2609.57 2587.7,2610.75 2587.54,2612.05 2587.29,2613.45 2586.96,2614.9 2586.56,2616.38 2586.09,2617.84 2585.55,2619.26 2584.95,2620.6 2584.29,2621.83 2583.57,2622.92 2582.81,2623.82 1446.93,1487.94 1447.69,1487.03 1448.41,1485.95 1449.07,1484.72 1449.67,1483.38 1450.21,1481.96 1450.68,1480.49 1451.08,1479.02 1451.41,1477.57 1451.66,1476.17 1451.82,1474.87 1451.89,1473.69 1451.87,1472.67 1451.76,1471.85 1451.54,1471.25 "/>
     <polygon id="_292661144" class="fil1" points="1446.93,1487.94 2582.81,2623.82 2581.78,2625.09 2580.65,2626.48 2579.43,2627.97 2578.11,2629.56 2576.71,2631.24 2575.24,2632.99 2573.69,2634.8 2572.07,2636.66 2570.39,2638.56 2568.65,2640.48 2566.86,2642.41 2565.02,2644.35 2563.15,2646.28 2561.24,2648.18 2559.29,2650.06 2557.33,2651.88 2555.35,2653.66 2553.35,2655.36 2551.35,2656.98 2549.35,2658.51 2547.35,2659.94 2545.35,2661.25 2543.38,2662.44 2541.42,2663.48 2539.49,2664.38 2537.59,2665.11 2535.73,2665.67 2533.9,2666.04 2532.13,2666.22 2530.41,2666.18 2528.75,2665.92 2527.15,2665.44 1391.27,1529.55 1392.87,1530.04 1394.53,1530.3 1396.25,1530.33 1398.02,1530.16 1399.84,1529.79 1401.71,1529.23 1403.61,1528.49 1405.54,1527.6 1407.5,1526.55 1409.47,1525.37 1411.46,1524.06 1413.47,1522.63 1415.47,1521.1 1417.47,1519.48 1419.47,1517.77 1421.45,1516 1423.41,1514.17 1425.35,1512.3 1427.27,1510.39 1429.14,1508.47 1430.98,1506.53 1432.77,1504.59 1434.5,1502.67 1436.18,1500.78 1437.8,1498.92 1439.36,1497.11 1440.83,1495.36 1442.23,1493.68 1443.55,1492.09 1444.77,1490.59 1445.9,1489.2 "/>
     <polygon id="_292661600" class="fil1" points="1391.27,1529.55 2527.15,2665.44 2525.85,2664.98 2524.52,2664.5 2523.18,2664.01 2521.81,2663.5 2520.43,2662.99 2519.04,2662.45 2517.63,2661.91 2516.2,2661.36 2514.77,2660.79 2513.32,2660.22 2511.86,2659.65 2510.4,2659.06 2508.93,2658.48 2507.46,2657.89 2505.99,2657.29 2504.51,2656.7 1368.63,1520.82 1370.1,1521.41 1371.58,1522 1373.05,1522.59 1374.52,1523.18 1375.98,1523.76 1377.44,1524.34 1378.88,1524.91 1380.32,1525.47 1381.75,1526.03 1383.16,1526.57 1384.55,1527.1 1385.93,1527.62 1387.3,1528.13 1388.64,1528.62 1389.97,1529.1 "/>
     <polygon id="_292661096" class="fil1" points="1368.63,1520.82 2504.51,2656.7 2502.71,2655.98 2500.92,2655.26 2499.13,2654.54 2497.35,2653.83 2495.57,2653.13 2493.81,2652.43 2492.06,2651.75 2490.33,2651.08 2488.62,2650.43 2486.93,2649.79 2485.26,2649.17 2483.62,2648.57 2482,2648 2480.42,2647.45 2478.87,2646.92 2477.36,2646.43 2475.88,2645.96 2474.44,2645.53 2473.05,2645.13 2471.7,2644.77 2470.39,2644.44 2469.14,2644.16 2467.94,2643.91 2466.79,2643.71 2465.71,2643.56 2464.67,2643.45 2463.71,2643.4 2462.8,2643.39 2461.96,2643.44 2461.19,2643.54 2460.49,2643.7 2459.87,2643.92 1323.99,1508.04 1324.61,1507.82 1325.31,1507.66 1326.08,1507.56 1326.92,1507.51 1327.82,1507.52 1328.79,1507.57 1329.82,1507.68 1330.91,1507.83 1332.06,1508.03 1333.26,1508.27 1334.51,1508.56 1335.82,1508.88 1337.17,1509.25 1338.56,1509.65 1340,1510.08 1341.47,1510.54 1342.99,1511.04 1344.54,1511.56 1346.12,1512.11 1347.74,1512.69 1349.38,1513.29 1351.05,1513.91 1352.74,1514.54 1354.45,1515.2 1356.18,1515.87 1357.93,1516.55 1359.69,1517.24 1361.47,1517.95 1363.25,1518.66 1365.04,1519.38 1366.83,1520.1 "/>
     <polygon id="_292661384" class="fil1" points="1323.99,1508.04 2459.87,2643.92 2459.29,2644.21 2458.69,2644.59 2458.09,2645.05 2457.48,2645.6 2456.86,2646.23 2456.23,2646.94 2455.59,2647.73 2454.94,2648.58 2454.29,2649.51 2453.62,2650.5 2452.95,2651.56 2452.27,2652.68 2451.59,2653.86 2450.9,2655.09 2450.2,2656.37 2449.49,2657.71 2448.78,2659.09 2448.07,2660.52 2447.35,2661.99 2446.62,2663.49 2445.89,2665.03 2445.16,2666.61 2444.42,2668.21 2443.68,2669.84 2442.93,2671.5 2442.18,2673.18 2441.43,2674.87 2440.68,2676.59 2439.93,2678.31 2439.17,2680.05 2438.41,2681.79 2437.65,2683.54 1301.77,1547.65 1302.53,1545.91 1303.29,1544.16 1304.05,1542.43 1304.8,1540.7 1305.55,1538.99 1306.3,1537.3 1307.05,1535.62 1307.8,1533.96 1308.54,1532.33 1309.28,1530.73 1310.01,1529.15 1310.74,1527.61 1311.47,1526.1 1312.19,1524.64 1312.9,1523.21 1313.61,1521.83 1314.32,1520.49 1315.02,1519.21 1315.71,1517.98 1316.39,1516.8 1317.07,1515.68 1317.74,1514.62 1318.41,1513.63 1319.06,1512.7 1319.71,1511.85 1320.35,1511.06 1320.98,1510.35 1321.6,1509.72 1322.21,1509.17 1322.81,1508.71 1323.4,1508.33 "/>
     <polygon id="_292661120" class="fil1" points="1301.77,1547.65 2437.65,2683.54 2436.75,2685.71 2435.82,2688.09 2434.84,2690.64 2433.8,2693.3 2432.7,2696.03 2431.52,2698.79 2430.25,2701.53 2428.87,2704.2 2427.38,2706.75 2425.76,2709.14 2424.01,2711.31 2422.1,2713.24 2420.04,2714.86 2417.8,2716.13 2415.37,2717.01 2412.75,2717.44 1276.87,1581.56 1279.49,1581.12 1281.92,1580.25 1284.16,1578.98 1286.22,1577.36 1288.13,1575.43 1289.88,1573.25 1291.5,1570.86 1292.99,1568.31 1294.36,1565.65 1295.64,1562.91 1296.82,1560.15 1297.92,1557.42 1298.96,1554.75 1299.94,1552.21 1300.87,1549.82 "/>
     <polygon id="_292661648" class="fil1" points="1172.8,1509.72 2308.68,2645.6 2308.07,2645.05 2307.47,2644.59 2306.88,2644.21 2306.3,2643.92 1170.41,1508.04 1171,1508.33 1171.59,1508.71 1172.19,1509.17 "/>
     <polygon id="_292661264" class="fil1" points="1170.41,1508.04 2306.3,2643.92 2305.67,2643.7 2304.97,2643.54 2304.2,2643.44 2303.36,2643.39 2302.46,2643.4 2301.49,2643.45 2300.46,2643.56 2299.37,2643.71 2298.22,2643.91 2297.02,2644.16 2295.77,2644.44 2294.47,2644.77 2293.12,2645.13 2291.72,2645.53 2290.28,2645.96 2288.81,2646.43 2287.29,2646.92 2285.74,2647.45 2284.16,2648 2282.54,2648.57 2280.9,2649.17 2279.24,2649.79 2277.54,2650.43 2275.83,2651.08 2274.1,2651.75 2272.35,2652.43 2270.59,2653.13 2268.82,2653.83 2267.03,2654.54 2265.25,2655.26 2263.45,2655.98 2261.66,2656.7 1125.77,1520.82 1127.57,1520.1 1129.36,1519.38 1131.15,1518.66 1132.94,1517.95 1134.71,1517.25 1136.47,1516.55 1138.22,1515.87 1139.95,1515.2 1141.66,1514.54 1143.35,1513.91 1145.02,1513.29 1146.66,1512.69 1148.28,1512.11 1149.86,1511.56 1151.41,1511.04 1152.93,1510.54 1154.4,1510.08 1155.84,1509.65 1157.24,1509.25 1158.59,1508.88 1159.89,1508.56 1161.14,1508.27 1162.34,1508.03 1163.49,1507.83 1164.58,1507.68 1165.61,1507.57 1166.58,1507.52 1167.48,1507.51 1168.32,1507.56 1169.09,1507.66 1169.79,1507.82 "/>
     <polygon id="_292662152" class="fil1" points="1276.87,1581.56 2412.75,2717.44 2410.98,2717.64 2409.04,2717.86 2406.95,2718.08 2404.72,2718.32 2402.37,2718.55 2399.91,2718.78 2397.35,2719 2394.7,2719.2 2391.98,2719.38 2389.2,2719.54 2386.38,2719.68 2383.52,2719.77 2380.64,2719.83 2377.75,2719.85 2374.87,2719.82 2372,2719.73 2369.17,2719.59 2366.38,2719.39 2363.65,2719.12 2360.99,2718.77 2358.41,2718.35 2355.93,2717.85 2353.56,2717.26 2351.31,2716.58 2349.19,2715.8 2347.23,2714.92 2345.42,2713.93 2343.79,2712.84 2342.35,2711.63 1206.46,1575.74 1207.91,1576.95 1209.54,1578.05 1211.35,1579.04 1213.31,1579.91 1215.43,1580.69 1217.68,1581.37 1220.05,1581.96 1222.53,1582.47 1225.11,1582.89 1227.77,1583.23 1230.5,1583.51 1233.29,1583.71 1236.12,1583.85 1238.98,1583.94 1241.87,1583.97 1244.75,1583.95 1247.63,1583.89 1250.49,1583.79 1253.32,1583.66 1256.1,1583.5 1258.82,1583.32 1261.47,1583.11 1264.03,1582.89 1266.49,1582.67 1268.84,1582.44 1271.07,1582.2 1273.16,1581.98 1275.1,1581.76 "/>
     <polygon id="_292662224" class="fil1" points="1048.6,1457.53 2184.48,2593.41 1700.84,2593.41 564.963,1457.53 "/>
     <polygon id="_292661936" class="fil1" points="1102.5,1529.77 2238.38,2665.66 2238.32,2665.85 2237.93,2665.96 2237.24,2665.98 2236.31,2665.92 2235.17,2665.79 2233.87,2665.59 2232.44,2665.34 2230.94,2665.05 2229.41,2664.71 2227.88,2664.33 2226.41,2663.93 2225.03,2663.51 2223.79,2663.08 2222.73,2662.64 2221.9,2662.21 2221.33,2661.79 1085.45,1525.91 1086.02,1526.33 1086.85,1526.76 1087.91,1527.2 1089.15,1527.63 1090.53,1528.05 1092,1528.45 1093.53,1528.82 1095.06,1529.16 1096.56,1529.46 1097.99,1529.71 1099.29,1529.91 1100.43,1530.04 1101.36,1530.1 1102.05,1530.08 1102.44,1529.97 "/>
     <polygon id="_292661792" class="fil1" points="1085.45,1525.91 2221.33,2661.79 2219.97,2660.68 2218.62,2659.57 2217.28,2658.46 2215.96,2657.34 2214.66,2656.22 2213.37,2655.11 2212.09,2653.99 2210.84,2652.87 2209.59,2651.74 2208.36,2650.62 1072.48,1514.74 1073.71,1515.86 1074.95,1516.98 1076.21,1518.11 1077.49,1519.22 1078.78,1520.34 1080.08,1521.46 1081.4,1522.57 1082.74,1523.69 1084.08,1524.8 "/>
     <polygon id="_292662176" class="fil1" points="1125.77,1520.82 2261.66,2656.7 2260.13,2657.31 2258.61,2657.92 2257.09,2658.53 2255.58,2659.14 2254.08,2659.74 2252.58,2660.33 2251.09,2660.92 2249.61,2661.49 2248.15,2662.06 2246.7,2662.62 2245.26,2663.16 2243.84,2663.69 2242.45,2664.21 2241.07,2664.71 2239.71,2665.19 2238.38,2665.66 1102.5,1529.77 1103.83,1529.31 1105.19,1528.83 1106.56,1528.33 1107.96,1527.81 1109.38,1527.28 1110.81,1526.74 1112.27,1526.18 1113.73,1525.61 1115.21,1525.03 1116.7,1524.45 1118.19,1523.85 1119.7,1523.25 1121.21,1522.65 1122.73,1522.04 1124.25,1521.43 "/>
     <polygon id="_292661888" class="fil1" points="564.963,1457.53 1700.84,2593.41 1698.59,2593.3 1696.4,2592.96 1694.28,2592.42 1692.25,2591.68 1690.32,2590.75 1688.5,2589.64 1686.8,2588.37 550.919,1452.49 552.619,1453.76 554.439,1454.87 556.369,1455.79 558.397,1456.54 560.514,1457.08 562.706,1457.42 "/>
    </g>
    <path id="_289373216" class="fil1" d="M564.963 464.031l452.572 0 233.118 232.582 0.145276 371.759c17.7473,0.034252 36.1536,2.84764 40.2225,12.6236 3.55394,7.13268 7.16457,15.4465 10.7528,23.7142 8.09528,18.6461 16.0713,37.017 22.213,39.6154 6.27284,2.65158 25.4835,-5.0752 44.6422,-12.7807 11.276,-4.53544 29.5441,-15.7181 40.3264,-5.08937 7.31103,5.91497 13.9949,11.9032 20.0244,17.9327 6.4004,6.40158 12.7559,13.5402 19.0299,21.3827 2.15433,-1.68425 4.45512,11.4756 2.5689,16.3311 -2.40118,6.89056 -5.57008,14.7685 -8.74135,22.6512 -7.70552,19.1599 -15.4323,38.3693 -12.7795,44.6422 2.59843,6.14174 20.9705,14.1189 39.6166,22.2142 10.9358,4.74804 32.8559,10.3795 33.9012,24.9012 1.53898,13.4244 8.49804,65.713 -10.1894,73.4894 -7.1315,3.5563 -15.4453,7.16575 -23.7118,10.7551 -18.6461,8.09528 -37.0181,16.0713 -39.6166,22.213 -2.65276,6.27166 5.07402,25.4823 12.7807,44.641 3.26693,8.12127 6.53032,16.2366 8.95631,23.2725 2.59134,-0.647245 0.337796,12.7878 -3.86693,17.054 -10.4079,12.861 -38.9788,48.1111 -55.6571,41.6197 -6.88819,-2.40118 -14.7626,-5.5689 -22.6429,-8.73662 -19.1575,-7.70552 -38.3681,-15.4323 -44.641,-12.7807 -6.14174,2.59843 -14.1177,20.9705 -22.213,39.6154 -4.74804,10.937 -10.3795,32.8571 -24.9012,33.9024 -18.0225,2.06811 -66.1501,7.45276 -73.4894,-10.187 -3.55512,-7.13268 -7.16457,-15.4453 -10.7551,-23.7154 -8.0941,-18.6449 -16.0713,-37.017 -22.213,-39.6154 -6.27166,-2.65158 -25.4823,5.0752 -44.6398,12.7819 -8.12245,3.26575 -16.239,6.53032 -23.2748,8.95512 0.657875,1.31457 -14.8075,-1.65354 -17.0528,-3.86693 -7.31103,-5.91497 -13.9961,-11.9032 -20.0256,-17.9327 -8.42599,-8.42599 -26.9658,-23.9079 -21.5977,-37.7185 1.38662,-3.97677 3.02717,-8.2819 4.77756,-12.7264l-483.638 0c-12.1937,0 -22.0784,-9.88465 -22.0784,-22.0784l0 -949.344c0,-12.1913 9.88465,-22.0772 22.0784,-22.0772z"/>
   </g>
  </g>
  <path class="fil2" d="M1024 -0.0011811c565.539,0 1024,458.462 1024,1024 0,565.539 -458.462,1024 -1024,1024 -565.539,0 -1024,-458.462 -1024,-1024 0,-565.539 458.462,-1024 1024,-1024z"/>
  <path class="fil3" d="M564.963 464.063l452.573 0 0.497244 233.041 232.765 -0.459449 0 738.839c0,12.1937 -9.88583,22.0784 -22.0784,22.0784l-663.756 0c-12.1937,0 -22.0784,-9.88465 -22.0784,-22.0784l0 -949.342c0,-12.1925 9.88465,-22.0784 22.0784,-22.0784z"/>
  <polygon class="fil4" points="1018.01,464 1250.86,696.852 1018.01,696.852 "/>
  <polygon class="fil5" points="654.626,728.996 932.707,728.996 932.707,773.153 654.626,773.153 "/>
  <polygon class="fil5" points="654.626,949.772 1139.05,949.772 1139.05,993.929 654.626,993.929 "/>
  <polygon class="fil5" points="654.626,1060.16 1139.05,1060.16 1139.05,1104.32 654.626,1104.32 "/>
  <polygon class="fil5" points="654.626,1170.55 1139.05,1170.55 1139.05,1214.7 654.626,1214.7 "/>
  <polygon class="fil5" points="654.626,1280.94 1139.05,1280.94 1139.05,1325.09 654.626,1325.09 "/>
  <polygon class="fil5" points="654.626,839.384 1139.05,839.384 1139.05,883.541 654.626,883.541 "/>
  <path class="fil6" d="M1291.02 1081.03c3.55512,7.13268 7.16575,15.4465 10.7539,23.7142 8.09528,18.6449 16.0713,37.017 22.213,39.6142 6.27284,2.65276 25.4835,-5.07402 44.6422,-12.7795 11.276,-4.53662 29.5441,-15.7181 40.3264,-5.08937 7.31103,5.91615 13.9949,11.9032 20.0244,17.9327 6.4004,6.4004 12.7559,13.5402 19.0299,21.3827l0.0637796 -0.0507874c3.8315,4.78819 4.57678,11.0492 2.50512,16.3819 -2.40118,6.89056 -5.57008,14.7685 -8.74135,22.6512 -7.70552,19.1599 -15.4323,38.3693 -12.7795,44.6422 2.59725,6.14174 20.9693,14.1189 39.6154,22.2142 10.937,4.74804 32.8571,10.3795 33.9024,24.9012 1.53898,13.4244 8.49804,65.713 -10.1882,73.4906 -7.13268,3.55512 -15.4465,7.16457 -23.7142,10.7528 -18.6461,8.09646 -37.017,16.0725 -39.6154,22.2142 -2.65276,6.27166 5.07402,25.4823 12.7807,44.6398 3.26693,8.12245 6.5315,16.2378 8.95631,23.2736l0.00944883 -0.00354331c2.12126,6.15945 0.4063,12.7122 -3.87638,17.0575 -10.4067,12.861 -38.9788,48.1111 -55.6571,41.6197 -6.88819,-2.4 -14.7626,-5.56772 -22.6417,-8.73662 -19.1587,-7.70552 -38.3693,-15.4323 -44.6422,-12.7795 -6.14174,2.59725 -14.1177,20.9693 -22.213,39.6154 -4.74804,10.9358 -10.3795,32.8559 -24.9012,33.9012 -18.0225,2.06693 -66.1501,7.45276 -73.4894,-10.1882 -3.55512,-7.1315 -7.16457,-15.4453 -10.7551,-23.7142 -8.0941,-18.6449 -16.0713,-37.017 -22.213,-39.6142 -6.27166,-2.65276 -25.4823,5.07402 -44.6398,12.7795 -8.12245,3.26693 -16.239,6.5315 -23.2748,8.95631l0.00472441 0.00944883c-6.16063,2.12244 -12.7134,0.4063 -17.0575,-3.87638 -7.31103,-5.91615 -13.9961,-11.9043 -20.0256,-17.9327 -8.42599,-8.42599 -26.9658,-23.9079 -21.5965,-37.7185 2.40118,-6.89056 5.57008,-14.7685 8.74016,-22.6512 7.70552,-19.1575 15.4311,-38.3658 12.7795,-44.6374 -2.59843,-6.14174 -20.9705,-14.1189 -39.6166,-22.2142 -10.937,-4.74685 -32.8559,-10.3795 -33.9012,-24.9012 -0.52441,-4.56969 -0.941339,-9.39095 -1.24252,-14.4685 -0.320079,-5.43189 -0.486615,-10.5083 -0.486615,-15.202 0,-4.6937 0.166536,-9.76891 0.486615,-15.1984 0.317717,-5.36457 0.765355,-10.4421 1.3311,-15.2421l-0.0153543 -0.0011811c0.728741,-6.17126 4.75867,-11.1484 10.1138,-13.3772 7.13268,-3.55512 15.4453,-7.16457 23.7154,-10.7551 18.6449,-8.0941 37.017,-16.0713 39.6142,-22.213 2.65276,-6.27284 -5.07402,-25.4811 -12.7795,-44.6398 -3.26693,-8.12245 -6.53268,-16.239 -8.95631,-23.2736l-0.0106299 0.00354331c-2.12126,-6.15945 -0.405118,-12.7122 3.87756,-17.0575 5.91497,-7.31103 11.9032,-13.9949 17.9327,-20.0256 8.42599,-8.42481 23.9079,-26.9658 37.7185,-21.5965 6.89056,2.40118 14.7673,5.57008 22.6512,8.74016 19.1563,7.70552 38.3658,15.4311 44.6374,12.7795 6.14174,-2.59725 14.1189,-20.9705 22.213,-39.6154 9.28347,-21.3851 9.25276,-30.3638 27.0414,-33.7607 16.1244,-3.07796 64.4375,-6.56457 71.3504,10.0465z"/>
  <path class="fil7" d="M1315.47 1258.35c-17.3658,-17.3646 -41.3575,-28.1055 -67.8591,-28.1055 -26.5004,0 -50.4933,10.741 -67.8579,28.1055 -17.3658,17.3658 -28.1067,41.3575 -28.1067,67.8591 0,26.5004 10.741,50.4933 28.1067,67.8579 17.3646,17.3658 41.3575,28.1067 67.8579,28.1067 26.5016,0 50.4933,-10.741 67.8591,-28.1067 17.3658,-17.3646 28.1055,-41.3575 28.1055,-67.8579 0,-26.5016 -10.7398,-50.4933 -28.1055,-67.8591z"/>
  <path class="fil8" d="M1247.61 1197.07c35.6587,0 67.9441,14.4555 91.3146,37.826 23.3705,23.3705 37.826,55.6559 37.826,91.3146 0,35.6575 -14.4555,67.943 -37.826,91.3135 -23.3705,23.3705 -55.6559,37.826 -91.3146,37.826 -35.6575,0 -67.943,-14.4555 -91.3135,-37.826 -23.3705,-23.3705 -37.826,-55.6559 -37.826,-91.3135 0,-35.6587 14.4555,-67.9441 37.826,-91.3146 23.3705,-23.3705 55.6559,-37.826 91.3135,-37.826z"/>
  <path class="fil7" d="M1268.27 1305.55c-5.2878,-5.2878 -12.5965,-8.55946 -20.6681,-8.55946 -8.07284,0 -15.3803,3.27166 -20.6681,8.55946 -5.2878,5.2878 -8.55827,12.5965 -8.55827,20.6681 0,8.07284 3.27047,15.3803 8.55827,20.6681 5.2878,5.2878 12.5953,8.55827 20.6681,8.55827 8.07166,0 15.3803,-3.27047 20.6681,-8.55827 5.2878,-5.2878 8.55946,-12.5953 8.55946,-20.6681 0,-8.07166 -3.27166,-15.3803 -8.55946,-20.6681z"/>
  <path class="fil9" d="M1247.61 1263.81c17.2288,0 32.8311,6.98504 44.1248,18.2776 11.2925,11.2937 18.2776,26.8961 18.2776,44.1248 0,17.2299 -6.98504,32.8299 -18.2776,44.1237 -11.2937,11.2925 -26.8961,18.2788 -44.1248,18.2788 -17.2288,0 -32.8299,-6.98623 -44.1237,-18.2788 -11.2925,-11.2937 -18.2788,-26.8937 -18.2788,-44.1237 0,-17.2288 6.98623,-32.8311 18.2788,-44.1248 11.2937,-11.2925 26.8949,-18.2776 44.1237,-18.2776z"/>
 </g>
</svg>
