<?xml version="1.0" encoding="UTF-8"?>
<!DOCTYPE svg PUBLIC "-//W3C//DTD SVG 1.1//EN" "http://www.w3.org/Graphics/SVG/1.1/DTD/svg11.dtd">
<!-- Creator: CorelDRAW -->
<svg xmlns="http://www.w3.org/2000/svg" xml:space="preserve" width="2048px" height="2048px" style="shape-rendering:geometricPrecision; text-rendering:geometricPrecision; image-rendering:optimizeQuality; fill-rule:evenodd; clip-rule:evenodd"
viewBox="0 0 2048 2048"
 xmlns:xlink="http://www.w3.org/1999/xlink">
 <defs>
  <style type="text/css">
   <![CDATA[
    .fil2 {fill:none}
    .fil3 {fill:#26C6DA}
    .fil1 {fill:#303F9F}
    .fil0 {fill:#5C6BC0}
    .fil4 {fill:#0097A7;fill-rule:nonzero}
   ]]>
  </style>
   <clipPath id="id0">
    <path d="M1024 -0.0011811c565.539,0 1024,458.462 1024,1024 0,565.539 -458.462,1024 -1024,1024 -565.539,0 -1024,-458.462 -1024,-1024 0,-565.539 458.462,-1024 1024,-1024z"/>
   </clipPath>
 </defs>
 <g id="Layer_x0020_1">
  <metadata id="CorelCorpID_0Corel-Layer"/>
  <path class="fil0" d="M1024 -0.0011811c565.539,0 1024,458.462 1024,1024 0,565.539 -458.462,1024 -1024,1024 -565.539,0 -1024,-458.462 -1024,-1024 0,-565.539 458.462,-1024 1024,-1024z"/>
  <g style="clip-path:url(#id0)">
   <g id="_300484016">
    <g>
     <polygon id="_3683288881" class="fil1" points="1584,983.545 2719.88,2119.43 2687.09,2157.75 1551.21,1021.87 "/>
     <polygon id="_368328720" class="fil1" points="1551.21,1021.87 2687.09,2157.75 2526.5,2019.56 1390.62,883.683 "/>
     <polygon id="_368328288" class="fil1" points="1390.62,883.683 2526.5,2019.56 2526.5,2505.21 1390.62,1369.32 "/>
     <polygon id="_368329488" class="fil1" points="1567.61,1369.32 2703.49,2505.21 2703.49,2530.49 1567.61,1394.61 "/>
     <polygon id="_368329248" class="fil1" points="1567.61,1394.61 2703.49,2530.49 2703.49,2656.91 1567.61,1521.03 "/>
     <polygon id="_368329512" class="fil1" points="1567.61,1521.03 2703.49,2656.91 2703.49,2682.19 1567.61,1546.31 "/>
     <polygon id="_368328984" class="fil1" points="1567.61,1546.31 2703.49,2682.19 2678.2,2682.19 1542.32,1546.31 "/>
     <polygon id="_368329560" class="fil1" points="657.382,883.683 1793.26,2019.56 1632.67,2157.75 496.789,1021.87 "/>
     <polygon id="_368329440" class="fil1" points="505.68,1546.31 1641.56,2682.19 1616.28,2682.19 480.395,1546.31 "/>
     <polygon id="_368329080" class="fil1" points="1542.32,1546.31 2678.2,2682.19 1641.56,2682.19 505.68,1546.31 "/>
    </g>
    <polygon id="_300483752" class="fil1" points="1040.39,515.794 1584,983.545 1551.21,1021.87 1390.62,883.683 1390.62,1369.32 1542.32,1369.32 1567.61,1369.32 1567.61,1394.61 1567.61,1521.03 1567.61,1546.31 1542.32,1546.31 505.68,1546.31 480.395,1546.31 480.395,1521.03 480.395,1394.61 480.395,1369.32 505.68,1369.32 657.382,1369.32 657.382,883.683 496.789,1021.87 463.999,983.545 1007.61,515.794 1024,501.688 "/>
   </g>
  </g>
  <path class="fil2" d="M1024 -0.0011811c565.539,0 1024,458.462 1024,1024 0,565.539 -458.462,1024 -1024,1024 -565.539,0 -1024,-458.462 -1024,-1024 0,-565.539 458.462,-1024 1024,-1024z"/>
  <path class="fil3" d="M1040.39 515.794l543.606 467.751 -32.7898 38.3221 -160.593 -138.184 0 510.925 -733.236 0 0 -510.925 -160.593 138.184 -32.7898 -38.3221 543.606 -467.751 16.3949 -14.1059 16.3949 14.1059zm-16.3949 398.42c41.889,0 79.8166,16.9807 107.269,44.4343 27.4536,27.4524 44.4343,65.38 44.4343,107.269 0,41.8878 -16.9807,79.8166 -44.4343,107.269 -27.4524,27.4536 -65.38,44.4343 -107.269,44.4343 -41.889,0 -79.8166,-16.9807 -107.269,-44.4343 -27.4536,-27.4524 -44.4343,-65.3812 -44.4343,-107.269 0,-41.889 16.9807,-79.8166 44.4343,-107.269 27.4524,-27.4536 65.38,-44.4343 107.269,-44.4343z"/>
  <polygon class="fil4" points="505.68,1369.32 1542.32,1369.32 1567.61,1369.32 1567.61,1394.61 1567.61,1521.03 1567.61,1546.31 1542.32,1546.31 505.68,1546.31 480.395,1546.31 480.395,1521.03 480.395,1394.61 480.395,1369.32 "/>
 </g>
</svg>
