<svg xmlns="http://www.w3.org/2000/svg" viewBox="0 0 32 32"><g id="search"><path d="M28.34,24.12l-6.5-6.85A10.49,10.49,0,1,0,12.5,23h.55a1,1,0,1,0-.1-2,8.5,8.5,0,1,1,5.4-2.32A8.72,8.72,0,0,1,16.53,20a1,1,0,0,0-.41,1.35.89.89,0,0,0,.36.36s0,.06,0,.08l6.77,7.13A3.48,3.48,0,0,0,25.73,30h.09a3.43,3.43,0,0,0,2.39-1A3.47,3.47,0,0,0,28.34,24.12Zm-1.5,3.47a1.45,1.45,0,0,1-1.06.41,1.51,1.51,0,0,1-1-.46l-6.15-6.49a10.07,10.07,0,0,0,1.14-.93,10.54,10.54,0,0,0,1-1.12l6.16,6.5A1.47,1.47,0,0,1,26.84,27.59Z"/><path d="M8.55,8.16a1,1,0,0,0-1.39.29,7.19,7.19,0,0,0,1.17,9.29A1,1,0,0,0,9,18a1,1,0,0,0,.67-1.74A5.32,5.32,0,0,1,8,12.91a5.24,5.24,0,0,1,.84-3.36A1,1,0,0,0,8.55,8.16Z"/></g></svg>