<?xml version="1.0" encoding="utf-8"?>
<!-- Generator: Adobe Illustrator 22.0.0, SVG Export Plug-In . SVG Version: 6.00 Build 0)  -->
<svg version="1.1" id="Layer_1" xmlns="http://www.w3.org/2000/svg" xmlns:xlink="http://www.w3.org/1999/xlink" x="0px" y="0px"
	 viewBox="0 0 500 500" style="enable-background:new 0 0 500 500;" xml:space="preserve">
<style type="text/css">
	.st0{fill:#C9C9C9;}
	.st1{fill:#A0A0A0;}
	.st2{fill:#71CCFF;}
	.st3{fill:#231F20;}
	.st4{fill:#F9F9F9;}
	.st5{fill:#7A7979;}
	.st6{fill:#4C4C4C;}
	.st7{fill:#F9B630;}
	.st8{fill:#D88A0E;}
	.st9{fill:#FFEDCC;}
	.st10{fill:#C0E7F9;}
	.st11{fill:#08B26C;}
	.st12{fill:#15A9EA;}
	.st13{fill:none;stroke:#C9C9C9;stroke-width:10;stroke-linecap:round;stroke-linejoin:round;stroke-miterlimit:10;}
	.st14{fill:none;stroke:#231F20;stroke-width:10;stroke-linecap:round;stroke-linejoin:round;stroke-miterlimit:10;}
	.st15{fill:#FFFFFF;}
	.st16{fill:#35EF9F;}
	.st17{fill:#22A6E0;}
	.st18{fill:#FC3A6D;}
	.st19{fill:#FFA9C8;}
	.st20{fill:#038E52;}
	.st21{fill:#E2074B;}
</style>
<g>
	<g>
		<path class="st3" d="M7,207.2H5c-2.8,0-5-2.2-5-5s2.2-5,5-5h2c2.8,0,5,2.2,5,5S9.8,207.2,7,207.2z"/>
	</g>
</g>
<g>
	<g>
		<path class="st5" d="M176.3,198.3c18.2-33.9,54-57,95.2-57c59.6,0,107.9,48.3,107.9,107.9h-37.7l75.3,75.3l75.3-75.3
			c0,0-19.2,0-38.3,0c0-100.8-81.7-182.5-182.5-182.5c-57.9,0-109.6,27-143,69.1l-1.9,9.5L176.3,198.3z"/>
	</g>
</g>
<g>
	<g>
		<path class="st6" d="M319.5,73.1v79.5c13.7,6.8,25.7,16.5,35.3,28.2l11.7-16.8c11.7-16.8,18.6-36.2,20.2-56.2
			C367.2,91.8,344.4,79.8,319.5,73.1z"/>
	</g>
</g>
<g>
	<g>
		<path class="st6" d="M210.2,77.2c-32.5,11.6-60.7,32.1-81.7,58.5l-1.9,9.5l49.8,53c8.1-15.2,19.8-28.2,33.9-37.9V77.2z"/>
	</g>
</g>
<g>
	<g>
		<path class="st3" d="M417,329.5c-1.3,0-2.6-0.5-3.5-1.5l-75.3-75.3c-1.4-1.4-1.9-3.6-1.1-5.4c0.8-1.9,2.6-3.1,4.6-3.1h32.6
			c-2.6-54.4-47.7-97.9-102.8-97.9c-38,0-72.8,20.8-90.7,54.4c-1.3,2.4-4.3,3.4-6.8,2c-2.4-1.3-3.4-4.3-2-6.8
			c19.7-36.8,57.9-59.6,99.6-59.6c62.2,0,112.9,50.6,112.9,112.9c0,2.8-2.2,5-5,5h-25.6l63.3,63.3l63.3-63.3h-26.3c-2.8,0-5-2.2-5-5
			c0-97.9-79.6-177.5-177.5-177.5c-54.5,0-105.2,24.5-139.1,67.2c-1.7,2.2-4.9,2.5-7,0.8c-2.2-1.7-2.5-4.9-0.8-7
			c35.8-45.1,89.4-71,146.9-71c101.7,0,184.8,81.4,187.4,182.5h33.4c2,0,3.8,1.2,4.6,3.1c0.8,1.9,0.3,4-1.1,5.4L420.5,328
			C419.5,329,418.2,329.5,417,329.5z"/>
	</g>
</g>
<g>
	<g>
		<path class="st2" d="M126.6,146.9c0-19.3-15.6-34.9-34.9-34.9s-34.9,15.6-34.9,34.9h-0.7c-15.1,0-27.8,11.8-28.2,26.9
			c-0.4,15.6,12.1,28.4,27.6,28.4h129.3v-0.5c0-10.2-8.3-18.5-18.5-18.5h0V178c0-17.1-13.9-31-31-31L126.6,146.9z"/>
	</g>
</g>
<g>
	<g>
		<path class="st10" d="M69.6,171.9H56.1c-2.8,0-5-2.2-5-5s2.2-5,5-5h13.5c1.2,0,2.2-1,2.2-2.2v-12.8c0-11,8.9-19.9,19.9-19.9
			c2.8,0,5,2.2,5,5s-2.2,5-5,5c-5.4,0-9.9,4.4-9.9,9.9v12.8C81.8,166.4,76.3,171.9,69.6,171.9z"/>
	</g>
</g>
<g>
	<g>
		<path class="st3" d="M184.8,207.2H55.5c-8.9,0-17.2-3.5-23.4-9.9c-6.2-6.4-9.5-14.8-9.2-23.7c0.4-16.2,13.2-29.5,29.2-31.5
			c2.4-19.8,19.2-35.1,39.6-35.1c20.3,0,37.1,15.2,39.6,34.9l4.1,0c19.8,0,36,16.2,36,36v0.8c10.6,2.3,18.5,11.7,18.5,23v0.5
			C189.8,204.9,187.6,207.2,184.8,207.2z M56.1,151.9c-12.5,0-22.9,9.9-23.2,22c-0.2,6.2,2.1,12,6.4,16.4c4.3,4.4,10.1,6.9,16.2,6.9
			H179c-1.9-5.2-6.9-9-12.7-9c-2.8,0-5-2.2-5-5V178c0-14.3-11.7-26-26-26l-8.8,0c-2.8,0-5-2.2-5-5c0-16.5-13.4-29.9-29.9-29.9
			s-29.9,13.4-29.9,29.9c0,2.8-2.2,5-5,5H56.1z M131.6,146.9L131.6,146.9L131.6,146.9z"/>
	</g>
</g>
<g>
	<g>
		<path class="st3" d="M61.8,207.2H22.9c-2.8,0-5-2.2-5-5s2.2-5,5-5h38.9c2.8,0,5,2.2,5,5S64.6,207.2,61.8,207.2z"/>
	</g>
</g>
<g>
	<g>
		<path class="st5" d="M363.1,307.8c-19,30.6-53,50.9-91.6,50.9c-59.6,0-107.9-48.3-107.9-107.9h37.7L126,175.5l-75.3,75.3
			c0,0,19.2,0,38.3,0c0,100.8,81.7,182.5,182.5,182.5c62.7,0,118-31.6,150.9-79.8"/>
	</g>
</g>
<g>
	<g>
		<path class="st6" d="M271.5,433.3c28.6,0,55.7-6.6,79.8-18.3c-1.9-3-4.3-5.8-7-8.1c-3-17.3-18.1-30.4-36.2-30.4
			c-11.8,0-22.3,5.6-29,14.3c-6.7-8.7-17.2-14.3-29-14.3c-11.8,0-22.3,5.6-29,14.3c-6.7-8.7-17.2-14.3-29-14.3
			c-13.7,0-25.7,7.6-32,18.7C190.7,419.1,229.5,433.3,271.5,433.3z"/>
	</g>
</g>
<g>
	<g>
		<path class="st0" d="M176.2,387.4c-1,0-2-0.3-2.9-1c-35.8-26-59.6-64.2-66.9-107.6c-0.5-2.7,1.4-5.3,4.1-5.8
			c2.7-0.5,5.3,1.4,5.8,4.1c6.9,40.7,29.2,76.7,62.9,101.1c2.2,1.6,2.7,4.8,1.1,7C179.2,386.7,177.7,387.4,176.2,387.4z"/>
	</g>
</g>
<g>
	<g>
		<path class="st0" d="M109,259.5c-2.7,0-4.9-2.2-5-4.9c0-1.3,0-2.5,0-3.8c0-2.8,2.2-5,5-5s5,2.2,5,5c0,1.2,0,2.4,0,3.6
			c0.1,2.8-2.1,5-4.9,5.1C109.1,259.5,109.1,259.5,109,259.5z"/>
	</g>
</g>
<g>
	<g>
		<path class="st6" d="M422.4,353.5l-59.3-45.8c-15.5,25-41,43.1-70.9,48.9c8.5,13.3,23.3,22.2,40.2,22.2h69
			C409.2,371.1,416.2,362.6,422.4,353.5z"/>
	</g>
</g>
<g>
	<g>
		<path class="st3" d="M271.5,438.3c-101.7,0-184.8-81.4-187.4-182.5H50.6c-2,0-3.8-1.2-4.6-3.1c-0.8-1.9-0.3-4,1.1-5.4l75.3-75.3
			c0.9-0.9,2.2-1.5,3.5-1.5s2.6,0.5,3.5,1.5l75.3,75.3c1.4,1.4,1.9,3.6,1.1,5.4c-0.8,1.9-2.6,3.1-4.6,3.1h-32.6
			c2.6,54.4,47.7,97.9,102.8,97.9c35.8,0,68.5-18.2,87.4-48.6c1.5-2.3,4.5-3.1,6.9-1.6c2.3,1.5,3.1,4.5,1.6,6.9
			c-20.8,33.4-56.6,53.3-95.9,53.3c-62.2,0-112.9-50.6-112.9-112.9c0-2.8,2.2-5,5-5h25.6L126,182.6l-63.3,63.3H89c2.8,0,5,2.2,5,5
			c0,97.9,79.6,177.5,177.5,177.5c58.8,0,113.6-29,146.8-77.6c1.6-2.3,4.7-2.9,6.9-1.3c2.3,1.6,2.9,4.7,1.3,6.9
			C391.5,407.7,333.6,438.3,271.5,438.3z"/>
	</g>
</g>
<g>
	<g>
		<path class="st2" d="M332.5,303.6c-15.3,0-27.6,12.4-27.6,27.6s12.4,27.6,27.6,27.6h111.7c15.3,0,27.6-12.4,27.6-27.6
			s-12.4-27.6-27.6-27.6h-0.6c0-11.1-9-20-20-20c-11.1,0-20,9-20,20c0-19.3-15.6-34.9-34.9-34.9s-34.9,15.6-34.9,34.9H332.5z"/>
	</g>
</g>
<g>
	<g>
		<path class="st3" d="M444.2,363.9H332.5c-18,0-32.6-14.6-32.6-32.6c0-16.8,12.8-30.7,29.2-32.4c2.4-19.7,19.2-35.1,39.6-35.1
			c16,0,29.9,9.5,36.2,23.2c4.6-5.1,11.3-8.4,18.7-8.4c12.2,0,22.3,8.7,24.6,20.3c16.1,1.9,28.7,15.7,28.7,32.4
			C476.8,349.3,462.2,363.9,444.2,363.9z M332.5,308.6c-12.5,0-22.6,10.2-22.6,22.6s10.2,22.6,22.6,22.6h111.7
			c12.5,0,22.6-10.2,22.6-22.6s-10.2-22.6-22.6-22.6h-0.6c-2.8,0-5-2.2-5-5c0-8.3-6.7-15-15-15c-8.3,0-15,6.7-15,15c0,2.8-2.2,5-5,5
			s-5-2.2-5-5c0-16.5-13.4-29.9-29.9-29.9s-29.9,13.4-29.9,29.9c0,2.8-2.2,5-5,5H332.5z"/>
	</g>
</g>
<g>
	<g>
		<path class="st10" d="M346.1,330.1h-13.6c-2.8,0-5-2.2-5-5s2.2-5,5-5h13.6c2.3,0,4.2-1.9,4.2-4.2V304c0-5.9,2.8-11.6,7.5-15.1
			c2.2-1.7,5.3-1.2,7,1s1.2,5.3-1,7c-2.2,1.7-3.5,4.3-3.5,7.1v11.9C360.3,323.8,353.9,330.1,346.1,330.1z"/>
	</g>
</g>
<g>
	<g>
		<path class="st5" d="M377.9,231.7c0.9,5.8,1.4,11.6,1.4,17.5c-11,0-22,0-33,0c-1.6,0-3.2,0-4.8,0c8.5,8.5,17,17,25.5,25.5
			c16.1,16.8,34.2,32.1,49.8,49.8c8.5-8.5-3.1-3.1,0,0c24.9-24.9,50.1-50.2,75.3-75.3c-4.9,0-3.1,3.1,0,0
			c-12.6-0.1-25.2-0.1-37.9-0.1c-1.8-5.4,0-11.7-1.3-17.6"/>
	</g>
</g>
<g>
	<g>
		<path class="st3" d="M417,329.5C416.9,329.5,416.9,329.5,417,329.5C416.9,329.5,416.9,329.5,417,329.5c-0.1,0-0.1,0-0.1,0
			c0,0,0,0,0,0c-0.3,0-0.6,0-0.9-0.1c0,0,0,0,0,0c0,0,0,0,0,0c0,0,0,0,0,0c0,0,0,0,0,0s0,0,0,0s0,0,0,0c0,0,0,0,0,0c0,0,0,0,0,0
			c0,0,0,0,0,0c0,0,0,0,0,0c0,0,0,0,0,0c0,0,0,0,0,0c0,0,0,0,0,0c0,0,0,0,0,0c0,0,0,0,0,0l0,0c0,0,0,0,0,0c0,0,0,0,0,0c0,0,0,0,0,0
			c-0.1,0-0.2,0-0.3-0.1l0,0c0,0,0,0,0,0h0c0,0,0,0,0,0c0,0,0,0,0,0c0,0,0,0,0,0c0,0,0,0,0,0c0,0,0,0,0,0c0,0,0,0,0,0l0,0
			c0,0,0,0,0,0c0,0,0,0,0,0l0,0c0,0,0,0,0,0c0,0,0,0,0,0c0,0,0,0,0,0c0,0,0,0,0,0c0,0,0,0,0,0c0,0,0,0,0,0c0,0,0,0,0,0c0,0,0,0,0,0
			c0,0,0,0,0,0c0,0,0,0,0,0c0,0,0,0,0,0c0,0,0,0,0,0c0,0,0,0,0,0c0,0,0,0,0,0c0,0,0,0,0,0c0,0,0,0,0,0c0,0,0,0,0,0c0,0,0,0,0,0
			c0,0,0,0,0,0c0,0,0,0,0,0c0,0,0,0,0,0c0,0,0,0,0,0c0,0,0,0,0,0l0,0c0,0,0,0,0,0v0c-0.4-0.1-0.8-0.3-1.1-0.6c0,0,0,0,0,0
			c0,0,0,0,0,0c0,0,0,0,0,0c0,0,0,0,0,0c0,0,0,0,0,0c0,0,0,0,0,0c0,0,0,0,0,0s0,0,0,0s0,0,0,0c-0.3-0.2-0.5-0.4-0.7-0.6
			c-0.2-0.2-0.3-0.3-0.4-0.5c-9-10.1-18.9-19.6-28.6-28.9c-6.9-6.6-14.1-13.5-20.9-20.5l-25.5-25.5c-1.4-1.4-1.9-3.6-1.1-5.4
			c0.8-1.9,2.6-3.1,4.6-3.1h32.6c-0.2-3.9-0.6-7.8-1.2-11.7c-0.4-2.7,1.4-5.3,4.1-5.7c2.7-0.4,5.3,1.4,5.7,4.1
			c1,6,1.5,12.1,1.5,18.3c0,1.3-0.5,2.6-1.5,3.5c-0.9,0.9-2.2,1.5-3.5,1.5h-25.6l17,17c0,0,0,0,0.1,0.1c6.6,6.9,13.7,13.7,20.6,20.3
			c8.3,7.9,16.7,16,24.7,24.6c1.1-0.6,2.3-1.1,3.4-1.1c20.1-20.1,40.5-40.5,60.8-60.8c-8.7,0-17.3,0-25.8,0c-2.2,0-4.1-1.4-4.7-3.4
			c-1.2-3.7-1.2-7.4-1.1-10.9c0.1-2.6,0.1-5-0.4-7.1c-0.6-2.7,1.1-5.4,3.8-6c2.7-0.6,5.4,1.1,6,3.8c0.8,3.3,0.7,6.6,0.6,9.5
			c0,1.4-0.1,2.8,0,4.1c11.1,0,22.5,0,33.7,0.1c0.6,0,1.2,0.1,1.8,0.3l0,0c0,0,0,0,0,0c0,0,0,0,0,0c0,0,0,0,0,0c0,0,0,0,0,0
			c0,0,0,0,0,0c0,0,0,0,0,0c0,0,0,0,0,0c0,0,0,0,0,0c0,0,0,0,0,0c0,0,0,0,0,0c0,0,0,0,0,0c0,0,0,0,0,0c0,0,0,0,0,0c0,0,0,0,0,0
			c0,0,0,0,0,0s0,0,0,0c0,0,0,0,0,0c0,0,0,0,0,0c0,0,0,0,0,0c0,0,0,0,0,0c0,0,0,0,0,0c0,0,0,0,0,0c0,0,0,0,0,0c0,0,0,0,0,0
			c0,0,0,0,0,0c0,0,0,0,0,0c0,0,0,0,0,0c0,0,0,0,0,0c0,0,0,0,0,0c0,0,0,0,0,0c0,0,0,0,0,0c0,0,0,0,0,0c0,0,0,0,0,0c0,0,0,0,0,0
			c0,0,0,0,0,0c0,0,0,0,0,0c0,0,0,0,0,0c0,0,0,0,0,0c0,0,0,0,0,0c0,0,0,0,0,0c0,0,0,0,0,0l0,0c0,0,0,0,0,0l0,0c0,0,0,0,0,0
			c0,0,0,0,0,0c0,0,0,0,0,0c0,0,0,0,0,0c0,0,0,0,0,0c0,0,0,0,0,0c0.2,0.1,0.3,0.2,0.5,0.3c0,0,0,0,0,0c0,0,0,0,0.1,0l0,0
			c0,0,0,0,0,0c0,0,0,0,0,0c0,0,0,0,0,0c0,0,0,0,0,0c0,0,0,0,0,0v0c0,0,0,0,0,0c0,0,0,0,0,0c0,0,0,0,0,0c0,0,0,0,0,0c0,0,0,0,0,0
			c0,0,0,0,0,0c0,0,0,0,0,0c0,0,0,0,0,0c0,0,0,0,0,0c0,0,0,0,0,0c0,0,0,0,0,0c0,0,0,0,0,0c0,0,0,0,0,0c0,0,0,0,0,0c0,0,0,0,0,0
			c0,0,0,0,0,0c0,0,0,0,0,0c0,0,0,0,0,0c0,0,0,0,0,0c0,0,0,0,0,0c0,0,0,0,0,0c0,0,0,0,0,0c0,0,0,0,0,0c0,0,0,0,0,0c0,0,0,0,0,0
			c0,0,0,0,0,0c0,0,0,0,0,0c0,0,0,0,0,0c0,0,0,0,0,0c0,0,0,0,0,0c0,0,0,0,0,0c0,0,0,0,0,0c0,0,0,0,0,0c0,0,0,0,0,0c0,0,0,0,0,0
			c0,0,0,0,0,0c0,0,0,0,0,0c0,0,0,0,0,0c0,0,0,0,0,0c0,0,0,0,0,0c0,0,0,0,0,0c0,0,0,0,0,0c0,0,0,0,0,0c0,0,0,0,0,0c0,0,0,0,0,0
			c0,0,0,0,0,0c0,0,0,0,0,0c0,0,0,0,0,0c0,0,0,0,0,0c0,0,0,0,0,0c0,0,0,0,0,0c0,0,0,0,0,0c0,0,0,0,0,0c0,0,0,0,0,0c0,0,0,0,0,0
			c0,0,0,0,0,0c0,0,0,0,0,0c0,0,0,0,0,0c0,0,0,0,0,0c0,0,0,0,0,0c0,0,0,0,0,0c0,0,0,0,0,0c0,0,0,0,0,0c0,0,0,0,0,0c0,0,0,0,0,0
			c0,0,0,0,0,0c0,0,0,0,0,0c0,0,0,0,0,0c0,0,0,0,0,0c0,0,0,0,0,0c0,0,0,0,0,0c0,0,0,0,0,0c0,0,0,0,0,0c0,0,0,0,0,0c0,0,0,0,0,0
			c0,0,0,0,0,0c0,0,0,0,0,0c0,0,0,0,0,0c0,0,0,0,0,0c0,0,0,0,0,0c0,0,0,0,0,0c0,0,0,0,0,0c0,0,0,0,0,0c0,0,0,0,0,0c0,0,0,0,0,0
			c0,0,0,0,0,0c0,0,0,0,0,0c0,0,0,0,0,0c0,0,0,0,0,0c0,0,0,0,0,0c0,0,0,0,0,0c0,0,0,0,0,0c0,0,0,0,0,0c0,0,0,0,0,0c0,0,0,0,0,0
			c0,0,0,0,0,0c0,0,0,0,0,0c0,0,0,0,0,0c0,0,0,0,0,0c0,0,0,0,0,0c0,0,0,0,0,0c0,0,0,0,0,0c0,0,0,0,0,0c0,0,0,0,0,0c0,0,0,0,0,0
			c0,0,0,0,0,0c0,0,0,0,0,0c0,0,0,0,0,0c0,0,0,0,0,0c0,0,0,0,0,0c0,0,0,0,0,0c0,0,0,0,0,0c0,0,0,0,0,0c0,0,0,0,0,0c0,0,0,0,0,0
			c0,0,0,0,0,0c0,0,0,0,0,0c0,0,0,0,0,0c0,0,0,0,0,0c0,0,0,0,0,0c0,0,0,0,0,0c0,0,0,0,0,0c0,0,0,0,0,0c0,0,0,0,0,0c0,0,0,0,0,0
			c0,0,0,0,0,0c0,0,0,0,0,0c0,0,0,0,0,0c0,0,0,0,0,0c0,0,0,0,0,0c0,0,0,0,0,0c0,0,0,0,0,0c0,0,0,0,0,0c0,0,0,0,0,0c0,0,0,0,0,0
			c0,0,0,0,0,0c0,0,0,0,0,0c0,0,0,0,0,0c0,0,0,0,0,0c0,0,0,0,0,0c0,0,0,0,0,0c0,0,0,0,0,0c0,0,0,0,0,0c0,0,0,0,0,0c0,0,0,0,0,0
			c0,0,0,0,0,0c0,0,0,0,0,0c0,0,0,0,0,0c0,0,0,0,0,0c0,0,0,0,0,0c0,0,0,0,0,0c0,0,0,0,0,0c0,0,0,0,0,0c0,0,0,0,0,0c0,0,0,0,0,0
			c0,0,0,0,0,0c0,0,0,0,0,0c0,0,0,0,0,0c0,0,0,0,0,0c0,0,0,0,0,0c0,0,0,0,0,0c0,0,0,0,0,0c0,0,0,0,0,0c0,0,0,0,0,0c0,0,0,0,0,0
			c0,0,0,0,0,0c0,0,0,0,0,0c0,0,0,0,0,0c0,0,0,0,0,0c0,0,0,0,0,0c0,0,0,0,0,0c0,0,0,0,0,0c0,0,0,0,0,0c0,0,0,0,0,0c0,0,0,0,0,0
			c0,0,0,0,0,0c0,0,0,0,0,0c0,0,0,0,0,0c0,0,0,0,0,0c0,0,0,0,0,0c0,0,0,0,0,0c0,0,0,0,0,0c0,0,0,0,0,0c0,0,0,0,0,0c0,0,0,0,0,0
			c0,0,0,0,0,0c0,0,0,0,0,0c0,0,0,0,0,0c0,0,0,0,0,0c0,0,0,0,0,0c0,0,0,0,0,0c0,0,0,0,0,0c0,0,0,0,0,0c0,0,0,0,0,0c0,0,0,0,0,0
			c0,0,0,0,0,0c0,0,0,0,0,0c0,0,0,0,0,0c0,0,0,0,0,0c0,0,0,0,0,0c0,0,0,0,0,0c0,0,0,0,0,0c0,0,0,0,0,0c0,0,0,0,0,0c0,0,0,0,0,0
			c0,0,0,0,0,0c0,0,0,0,0,0c0,0,0,0,0,0c0,0,0,0,0,0c0,0,0,0,0,0c0,0,0,0,0,0c0,0,0,0,0,0c0,0,0,0,0,0c0,0,0,0,0,0c0,0,0,0,0,0
			c0,0,0,0,0,0c0,0,0,0,0,0c0,0,0,0,0,0c0,0,0,0,0,0c0,0,0,0,0,0c0,0,0,0,0,0c0,0,0,0,0,0c0,0,0,0,0,0c0,0,0,0,0,0c0,0,0,0,0,0
			c0,0,0,0,0,0c0,0,0,0,0,0c0,0,0,0,0,0c0,0,0,0,0,0c0,0,0,0,0,0c0,0,0,0,0,0c0,0,0,0,0,0c0,0,0,0,0,0c0,0,0,0,0,0c0,0,0,0,0,0
			c0,0,0,0,0,0c0,0,0,0,0,0c0,0,0,0,0,0c0,0,0,0,0,0c0,0,0,0,0,0c0,0,0,0,0,0c0,0,0,0,0,0c0,0,0,0,0,0c0,0,0,0,0,0c0,0,0,0,0,0
			c0,0,0,0,0,0c0,0,0,0,0,0c0,0,0,0,0,0c0,0,0,0,0,0c0,0,0,0,0,0c0,0,0,0,0,0c0,0,0,0,0,0c0,0,0,0,0,0c0,0,0,0,0,0c0,0,0,0,0,0
			c0,0,0,0,0,0c0,0,0,0,0,0c0,0,0,0,0,0c0,0,0,0,0,0s0,0,0,0s0,0,0,0c0,0,0,0,0,0c0,0,0,0,0,0s0,0,0,0s0,0,0,0s0,0,0,0c0,0,0,0,0,0
			c0,0,0,0,0,0s0,0,0,0c0,0,0,0,0,0c0,0,0,0,0,0s0,0,0,0s0,0,0,0c0,0,0,0,0,0c0,0,0,0,0,0c0,0,0,0,0,0c0,0,0,0,0,0c0,0,0,0,0,0
			c0,0,0,0,0,0c0,0,0,0,0,0c0,0,0,0,0,0c0,0,0,0,0,0c0,0,0,0,0,0c0,0,0,0,0,0c0,0,0,0,0,0c0,0,0,0,0,0c0,0,0,0,0,0c0,0,0,0,0,0
			c0,0,0,0,0,0c0,0,0,0,0,0c0,0,0,0,0,0c0,0,0,0,0,0c0,0,0,0,0,0c0,0,0,0,0,0c0,0,0,0,0,0c0,0,0,0,0,0c0,0,0,0,0,0c0,0,0,0,0,0
			c0,0,0,0,0,0c0,0,0,0,0,0c0,0,0,0,0,0c0,0,0,0,0,0c0,0,0,0,0,0c0,0,0,0,0,0c0,0,0,0,0,0c0,0,0,0,0,0c0,0,0,0,0,0c0,0,0,0,0,0
			c0,0,0,0,0,0c0,0,0,0,0,0c0,0,0,0,0,0c0,0,0,0,0,0c0,0,0,0,0,0c0,0,0,0,0,0c0,0,0,0,0,0c0,0,0,0,0,0c0,0,0,0,0,0c0,0,0,0,0,0
			c0.2,0.3,0.4,0.7,0.6,1.1c0,0.1,0.1,0.2,0.1,0.3c0,0,0,0,0,0c0,0,0,0,0,0c0,0,0,0,0,0c0,0,0,0,0,0c0,0,0,0,0,0c0,0,0,0,0,0
			c0,0,0,0,0,0c0,0,0,0,0,0c0,0,0,0,0,0c0,0,0,0,0,0c0,0,0,0,0,0c0,0,0,0,0,0c0,0,0,0,0,0c0,0,0,0,0,0c0,0,0,0,0,0c0,0,0,0,0,0
			c0,0,0,0,0,0c0,0,0,0,0,0c0,0,0,0,0,0c0,0,0,0,0,0c0,0,0,0,0,0c0,0,0,0,0,0c0,0,0,0,0,0c0,0,0,0,0,0c0,0,0,0,0,0c0,0,0,0,0,0
			c0,0,0,0,0,0c0,0,0,0,0,0c0,0,0,0,0,0c0,0,0,0,0,0c0,0,0,0,0,0c0,0,0,0,0,0c0,0,0,0,0,0c0,0,0,0,0,0c0,0,0,0,0,0c0,0,0,0,0,0
			c0,0,0,0,0,0c0,0,0,0,0,0c0,0,0,0,0,0c0,0,0,0,0,0c0,0,0,0,0,0c0,0,0,0,0,0c0,0,0,0,0,0c0,0,0,0,0,0c0,0,0,0,0,0c0,0,0,0,0,0
			c0,0,0,0,0,0c0,0,0,0,0,0c0,0,0,0,0,0c0,0,0,0,0,0c0,0,0,0,0,0c0,0,0,0,0,0c0,0,0,0,0,0c0,0,0,0,0,0c0,0,0,0,0,0c0,0,0,0,0,0
			c0,0,0,0,0,0c0,0,0,0,0,0c0,0,0,0,0,0c0,0,0,0,0,0c0,0,0,0,0,0c0,0,0,0,0,0c0,0,0,0,0,0c0,0,0,0,0,0c0,0,0,0,0,0c0,0,0,0,0,0
			c0,0,0,0,0,0c0,0,0,0,0,0c0,0,0,0,0,0c0,0,0,0,0,0c0,0,0,0,0,0c0,0,0,0,0,0c0,0,0,0,0,0c0,0,0,0,0,0c0,0,0,0,0,0c0,0,0,0,0,0
			c0,0,0,0,0,0c0,0,0,0,0,0c0,0,0,0,0,0c0,0,0,0,0,0c0,0,0,0,0,0c0,0,0,0,0,0c0,0,0,0,0,0c0,0,0,0,0,0c0,0,0,0,0,0c0,0,0,0,0,0
			c0,0,0,0,0,0c0,0,0,0,0,0c0,0,0,0,0,0c0,0,0,0,0,0c0,0,0,0,0,0c0,0,0,0,0,0c0,0,0,0,0,0c0,0,0,0,0,0c0,0,0,0,0,0c0,0,0,0,0,0
			c0,0,0,0,0,0c0,0,0,0,0,0c0,0,0,0,0,0c0,0,0,0,0,0c0,0,0,0,0,0c0,0,0,0,0,0c0,0,0,0,0,0c0,0,0,0,0,0c0,0,0,0,0,0c0,0,0,0,0,0
			c0,0,0,0,0,0c0,0,0,0,0,0c0,0,0,0,0,0c0,0,0,0,0,0c0,0,0,0,0,0c0,0,0,0,0,0c0,0,0,0,0,0c0,0,0,0,0,0c0,0,0,0,0,0c0,0,0,0,0,0
			c0,0,0,0,0,0c0,0,0,0,0,0c0,0,0,0,0,0c0,0,0,0,0,0c0,0,0,0,0,0c0,0,0,0,0,0c0,0,0,0,0,0c0,0,0,0,0,0c0,0,0,0,0,0c0,0,0,0,0,0
			c0,0,0,0,0,0c0,0,0,0,0,0c0,0,0,0,0,0c0,0,0,0,0,0c0,0,0,0,0,0c0,0,0,0,0,0c0,0,0,0,0,0c0,0,0,0,0,0c0,0,0,0,0,0c0,0,0,0,0,0
			c0,0,0,0,0,0c0,0,0,0,0,0c0,0,0,0,0,0c0,0,0,0,0,0c0,0,0,0,0,0c0,0,0,0,0,0c0,0,0,0,0,0c0,0,0,0,0,0c0,0,0,0,0,0c0,0,0,0,0,0
			c0,0,0,0,0,0c0,0,0,0,0,0c0,0,0,0,0,0c0,0,0,0,0,0c0,0,0,0,0,0c0,0,0,0,0,0c0,0,0,0,0,0c0,0,0,0,0,0c0,0,0,0,0,0c0,0,0,0,0,0
			c0,0,0,0,0,0c0,0,0,0,0,0c0,0,0,0,0,0c0,0,0,0,0,0c0,0,0,0,0,0c0,0,0,0,0,0c0,0,0,0,0,0c0,0,0,0,0,0c0,0,0,0,0,0c0,0,0,0,0,0
			c0,0,0,0,0,0c0,0,0,0,0,0c0,0,0,0,0,0c0,0,0,0,0,0c0,0,0,0,0,0c0,0,0,0,0,0c0,0,0,0,0,0c0,0,0,0,0,0c0,0,0,0,0,0c0,0,0,0,0,0
			c0,0,0,0,0,0c0,0,0,0,0,0c0,0,0,0,0,0c0,0,0,0,0,0c0,0,0,0,0,0c0,0,0,0,0,0c0,0,0,0,0,0c0,0,0,0,0,0c0,0,0,0,0,0c0,0,0,0,0,0
			c0,0,0,0,0,0c0,0,0,0,0,0c0,0,0,0,0,0c0,0,0,0,0,0c0,0,0,0,0,0c0,0,0,0,0,0c0,0,0,0,0,0c0,0,0,0,0,0c0,0,0,0,0,0c0,0,0,0,0,0
			c0,0,0,0,0,0c0,0,0,0,0,0c0,0,0,0,0,0c0,0,0,0,0,0l0,0c0,0,0,0,0,0v0c0,0,0,0,0,0v0c0,0,0,0,0,0v0c0,0,0,0,0,0l0,0c0,0,0,0,0,0v0
			c0.1,1.4-0.4,2.9-1.4,3.9c0,0,0,0,0,0c-25.1,25.1-50.4,50.4-75.2,75.2c0,0-0.1,0.1-0.1,0.1c0,0,0,0,0,0c-0.8,0.8-1.7,1.3-2.8,1.4
			c0,0,0,0,0,0c0,0,0,0,0,0c0,0,0,0,0,0c0,0,0,0,0,0c0,0,0,0,0,0c0,0,0,0,0,0c0,0,0,0,0,0c0,0,0,0,0,0c0,0,0,0,0,0c0,0,0,0,0,0
			c0,0,0,0,0,0c0,0,0,0,0,0c0,0,0,0,0,0c0,0,0,0,0,0c0,0,0,0,0,0l0,0C417.4,329.5,417.2,329.5,417,329.5z"/>
	</g>
</g>
<g>
	<g>
		<path class="st3" d="M477.3,363.9h-37.9c-2.8,0-5-2.2-5-5s2.2-5,5-5h37.9c2.8,0,5,2.2,5,5S480,363.9,477.3,363.9z"/>
	</g>
</g>
<g>
	<g>
		<path class="st3" d="M495,363.9h-1.5c-2.8,0-5-2.2-5-5s2.2-5,5-5h1.5c2.8,0,5,2.2,5,5S497.8,363.9,495,363.9z"/>
	</g>
</g>
<g>
	<g>
		<path class="st7" d="M276.6,5c-0.9,0-1.8,0-2.8,0s-1.8,0-2.8,0c-74.2,1.9-115.9,86.5-73.5,147.4l62.9,90.5
			c6.5,9.3,20.3,9.3,26.8,0l62.9-90.5C392.4,91.5,350.7,6.9,276.6,5z M273.8,128.7c-17.1,0-31-13.9-31-31s13.9-31,31-31
			s31,13.9,31,31S290.9,128.7,273.8,128.7z"/>
	</g>
</g>
<g>
	<g>
		<path class="st3" d="M273.8,255c-7,0-13.5-3.4-17.5-9.2l-62.9-90.5c-21.2-30.5-23.7-68.5-6.9-101.7C203,21,234.6,1,270.9,0
			c1.9,0,3.9,0,5.8,0l0,0C313,1,344.6,21,361.1,53.7c16.8,33.2,14.2,71.2-6.9,101.7l-62.9,90.5C287.3,251.6,280.8,255,273.8,255z
			 M273.8,10c-0.9,0-1.8,0-2.6,0c-32.6,0.8-60.9,18.8-75.8,48.1c-15.1,29.9-12.8,64,6.2,91.4l62.9,90.5c2.1,3.1,5.5,4.9,9.3,4.9
			s7.1-1.8,9.3-4.9l62.9-90.5c19-27.4,21.4-61.6,6.2-91.4C337.4,28.9,309,10.9,276.4,10C275.6,10,274.7,10,273.8,10z"/>
	</g>
</g>
<g>
	<g>
		<path class="st9" d="M271.6,30c-2.7,0-4.9-2.2-5-4.9c-0.1-2.8,2.1-5.1,4.9-5.1c0.8,0,1.6,0,2.4,0c2.8,0,5,2.2,5,5s-2.2,5-5,5
			c-0.7,0-1.4,0-2.1,0C271.7,30,271.6,30,271.6,30z"/>
	</g>
</g>
<g>
	<g>
		<path class="st9" d="M214,146.1c-1.6,0-3.1-0.7-4.1-2.1c-16.9-24.3-19-54.7-5.5-81.2c9.7-19.1,26-33.1,45.9-39.2
			c2.6-0.8,5.4,0.7,6.3,3.3c0.8,2.6-0.7,5.4-3.3,6.3c-17.3,5.3-31.5,17.5-40,34.2c-11.8,23.2-10,49.7,4.8,71c1.6,2.3,1,5.4-1.3,7
			C215.9,145.8,215,146.1,214,146.1z"/>
	</g>
</g>
<g>
	<g>
		<path class="st3" d="M273.8,133.7c-19.9,0-36-16.2-36-36s16.2-36,36-36s36,16.2,36,36S293.7,133.7,273.8,133.7z M273.8,71.7
			c-14.3,0-26,11.7-26,26s11.7,26,26,26s26-11.7,26-26S288.2,71.7,273.8,71.7z"/>
	</g>
</g>
<g>
	<g>
		<path class="st3" d="M273.8,255h-31c-2.8,0-5-2.2-5-5s2.2-5,5-5h31c2.8,0,5,2.2,5,5S276.6,255,273.8,255z"/>
	</g>
</g>
<g>
	<g>
		<path class="st3" d="M225.8,255h-3.3c-2.8,0-5-2.2-5-5s2.2-5,5-5h3.3c2.8,0,5,2.2,5,5S228.6,255,225.8,255z"/>
	</g>
</g>
<g>
	<g>
		<path class="st3" d="M304.8,255h-31c-2.8,0-5-2.2-5-5s2.2-5,5-5h31c2.8,0,5,2.2,5,5S307.6,255,304.8,255z"/>
	</g>
</g>
<g>
	<g>
		<path class="st3" d="M325.2,255h-3.3c-2.8,0-5-2.2-5-5s2.2-5,5-5h3.3c2.8,0,5,2.2,5,5S327.9,255,325.2,255z"/>
	</g>
</g>
<g>
	<g>
		<path class="st0" d="M432.4,225.7c-2.4,0-4.5-1.7-4.9-4.2c-4.5-26.8-16.1-52.2-33.5-73.4c-1.8-2.1-1.4-5.3,0.7-7
			c2.1-1.8,5.3-1.4,7,0.7c18.5,22.5,30.8,49.5,35.6,78.1c0.5,2.7-1.4,5.3-4.1,5.8C432.9,225.7,432.7,225.7,432.4,225.7z"/>
	</g>
</g>
<g>
	<g>
		<path class="st0" d="M434.7,252.9c-2.8,0-5-2.2-5-5c0-1.2,0-2.4,0-3.6c-0.1-2.8,2.1-5,4.9-5.1c2.7-0.1,5,2.1,5.1,4.9
			c0,1.3,0,2.5,0,3.8C439.7,250.7,437.4,252.9,434.7,252.9z"/>
	</g>
</g>
<g>
	<g>
		<path class="st11" d="M207.9,418.4c0.5-1.6,0.8-3.3,0.8-5.1c0-9.3-7.5-16.8-16.8-16.8c-9.3,0-16.8,7.5-16.8,16.8
			c0,1.8,0.3,3.5,0.8,5.1c-7.5,1.7-13.1,8.4-13.1,16.3c0,9.3,7.5,16.8,16.8,16.8c4.9,0,9.2-2.1,12.3-5.4c3.1,3.3,7.4,5.4,12.3,5.4
			c9.3,0,16.8-7.5,16.8-16.8C221,426.7,215.4,420.1,207.9,418.4z"/>
	</g>
</g>
<g>
	<g>
		<path class="st11" d="M265.9,418.4c0.5-1.6,0.8-3.3,0.8-5.1c0-9.3-7.5-16.8-16.8-16.8c-9.3,0-16.8,7.5-16.8,16.8
			c0,1.8,0.3,3.5,0.8,5.1c-7.5,1.7-13.1,8.4-13.1,16.3c0,9.3,7.5,16.8,16.8,16.8c4.9,0,9.2-2.1,12.3-5.4c3.1,3.3,7.4,5.4,12.3,5.4
			c9.3,0,16.8-7.5,16.8-16.8C279,426.7,273.4,420.1,265.9,418.4z"/>
	</g>
</g>
<g>
	<g>
		<path class="st11" d="M324,418.4c0.5-1.6,0.8-3.3,0.8-5.1c0-9.3-7.5-16.8-16.8-16.8c-9.3,0-16.8,7.5-16.8,16.8
			c0,1.8,0.3,3.5,0.8,5.1c-7.5,1.7-13.1,8.4-13.1,16.3c0,9.3,7.5,16.8,16.8,16.8c4.9,0,9.2-2.1,12.3-5.4c3.1,3.3,7.4,5.4,12.3,5.4
			c9.3,0,16.8-7.5,16.8-16.8C337.1,426.7,331.5,420.1,324,418.4z"/>
	</g>
</g>
<g>
	<g>
		<path class="st3" d="M204.2,456.5c-4.4,0-8.7-1.4-12.3-3.8c-3.6,2.5-7.9,3.8-12.3,3.8c-12,0-21.8-9.8-21.8-21.8
			c0-8.4,5-16.1,12.4-19.6c-0.1-0.6-0.1-1.2-0.1-1.9c0-12,9.8-21.8,21.8-21.8s21.8,9.8,21.8,21.8c0,0.6,0,1.3-0.1,1.9
			c7.4,3.6,12.4,11.2,12.4,19.6C226,446.7,216.2,456.5,204.2,456.5z M191.9,441.1L191.9,441.1c1.4,0,2.7,0.6,3.7,1.6
			c2.3,2.4,5.3,3.8,8.6,3.8c6.5,0,11.8-5.3,11.8-11.8c0-5.5-3.9-10.3-9.2-11.5c-1.4-0.3-2.6-1.2-3.3-2.4c-0.7-1.2-0.9-2.7-0.4-4
			c0.4-1.2,0.6-2.4,0.6-3.6c0-6.5-5.3-11.8-11.8-11.8s-11.8,5.3-11.8,11.8c0,1.2,0.2,2.4,0.6,3.6c0.4,1.3,0.3,2.8-0.4,4
			c-0.7,1.2-1.9,2.1-3.3,2.4c-5.3,1.2-9.2,6-9.2,11.5c0,6.5,5.3,11.8,11.8,11.8c3.3,0,6.4-1.3,8.6-3.8
			C189.2,441.7,190.5,441.1,191.9,441.1z"/>
	</g>
</g>
<g>
	<g>
		<path class="st3" d="M262.3,456.5c-4.4,0-8.7-1.4-12.3-3.8c-3.6,2.5-7.9,3.8-12.3,3.8c-12,0-21.8-9.8-21.8-21.8
			c0-8.4,5-16.1,12.4-19.6c-0.1-0.6-0.1-1.2-0.1-1.9c0-12,9.8-21.8,21.8-21.8c12,0,21.8,9.8,21.8,21.8c0,0.6,0,1.3-0.1,1.9
			c7.4,3.6,12.4,11.2,12.4,19.6C284,446.7,274.3,456.5,262.3,456.5z M250,441.1c1.4,0,2.7,0.6,3.7,1.6c2.3,2.4,5.3,3.8,8.6,3.8
			c6.5,0,11.8-5.3,11.8-11.8c0-5.5-3.9-10.3-9.2-11.5c-1.4-0.3-2.6-1.2-3.3-2.4c-0.7-1.2-0.9-2.7-0.4-4c0.4-1.2,0.6-2.4,0.6-3.6
			c0-6.5-5.3-11.8-11.8-11.8c-6.5,0-11.8,5.3-11.8,11.8c0,1.2,0.2,2.4,0.6,3.6c0.4,1.3,0.3,2.8-0.4,4c-0.7,1.2-1.9,2.1-3.3,2.4
			c-5.3,1.2-9.2,6-9.2,11.5c0,6.5,5.3,11.8,11.8,11.8c3.3,0,6.4-1.3,8.6-3.8C247.3,441.7,248.6,441.1,250,441.1z"/>
	</g>
</g>
<g>
	<g>
		<path class="st3" d="M320.4,456.5c-4.4,0-8.7-1.4-12.3-3.8c-3.6,2.5-7.9,3.8-12.3,3.8c-12,0-21.8-9.8-21.8-21.8
			c0-8.4,5-16.1,12.4-19.6c-0.1-0.6-0.1-1.2-0.1-1.9c0-12,9.8-21.8,21.8-21.8c12,0,21.8,9.8,21.8,21.8c0,0.6,0,1.3-0.1,1.9
			c7.4,3.6,12.4,11.2,12.4,19.6C342.1,446.7,332.4,456.5,320.4,456.5z M308.1,441.1c1.4,0,2.7,0.6,3.7,1.6c2.3,2.4,5.3,3.8,8.6,3.8
			c6.5,0,11.8-5.3,11.8-11.8c0-5.5-3.9-10.3-9.2-11.5c-1.4-0.3-2.6-1.2-3.3-2.4c-0.7-1.2-0.9-2.7-0.4-4c0.4-1.2,0.6-2.4,0.6-3.6
			c0-6.5-5.3-11.8-11.8-11.8c-6.5,0-11.8,5.3-11.8,11.8c0,1.2,0.2,2.4,0.6,3.6c0.4,1.3,0.3,2.8-0.4,4c-0.7,1.2-1.9,2.1-3.3,2.4
			c-5.3,1.2-9.2,6-9.2,11.5c0,6.5,5.3,11.8,11.8,11.8c3.3,0,6.4-1.3,8.6-3.8C305.4,441.7,306.7,441.1,308.1,441.1z"/>
	</g>
</g>
<g>
	<g>
		<path class="st3" d="M191.9,500c-2.8,0-5-2.2-5-5v-48.9c0-2.8,2.2-5,5-5s5,2.2,5,5V495C196.9,497.8,194.7,500,191.9,500z"/>
	</g>
</g>
<g>
	<g>
		<path class="st3" d="M250,500c-2.8,0-5-2.2-5-5v-48.9c0-2.8,2.2-5,5-5c2.8,0,5,2.2,5,5V495C255,497.8,252.8,500,250,500z"/>
	</g>
</g>
<g>
	<g>
		<path class="st3" d="M308.1,500c-2.8,0-5-2.2-5-5v-48.9c0-2.8,2.2-5,5-5s5,2.2,5,5V495C313.1,497.8,310.8,500,308.1,500z"/>
	</g>
</g>
</svg>
