<?xml version="1.0" encoding="UTF-8"?>
<!DOCTYPE svg PUBLIC "-//W3C//DTD SVG 1.1//EN" "http://www.w3.org/Graphics/SVG/1.1/DTD/svg11.dtd">
<!-- Creator: CorelDRAW -->
<svg xmlns="http://www.w3.org/2000/svg" xml:space="preserve" width="6.82666in" height="6.82666in" style="shape-rendering:geometricPrecision; text-rendering:geometricPrecision; image-rendering:optimizeQuality; fill-rule:evenodd; clip-rule:evenodd"
viewBox="0 0 6.82666 6.82666"
 xmlns:xlink="http://www.w3.org/1999/xlink">
 <defs>
  <style type="text/css">
   <![CDATA[
    .fil1 {fill:none}
    .fil0 {fill:#212121;fill-rule:nonzero}
   ]]>
  </style>
 </defs>
 <g id="Layer_x0020_1">
  <metadata id="CorelCorpID_0Corel-Layer"/>
  <g id="_554256688">
   <path id="_554256280" class="fil0" d="M1.12818 0.987157l4.5703 0c0.0463504,0 0.0884252,0.0188976 0.118858,0.0493268 0.0304291,0.0304331 0.0493268,0.0725157 0.0493268,0.118858l0 3.52348c0,0.0463504 -0.0189055,0.0884291 -0.0493307,0.118854l-0.000204724 -0.000204724c-0.0306575,0.0305669 -0.0726732,0.0495354 -0.11865,0.0495354l-1.46877 0 0.30948 -0.100248 -0.225547 -0.108461 1.34431 0 0 -3.44243 -4.48925 0 0 3.44243 1.47982 0 0.0544213 0.208709 -1.57477 0c-0.0463425,0 -0.0884291,-0.0188976 -0.118862,-0.0493268 -0.0304213,-0.0304252 -0.0493228,-0.0725 -0.0493228,-0.118858l0 -3.52348c0,-0.0458898 0.0188858,-0.0878071 0.0493268,-0.118449l-3.93701e-006 -3.93701e-006 0.000204724 -0.000204724 0.000204724 -0.000204724 3.93701e-006 3.93701e-006c0.0306417,-0.0304409 0.0725591,-0.0493268 0.118449,-0.0493268z"/>
   <path id="_554256568" class="fil0" d="M1.41175 4.06722c-0.0416496,0.0416496 -0.0416496,0.109185 0,0.150835 0.0416496,0.0416496 0.109185,0.0416496 0.150835,0l1.25226 -1.25226 0.945878 0.945874c0.0416496,0.0416496 0.109185,0.0416496 0.150835,0 0.0416496,-0.0416496 0.0416496,-0.109185 0,-0.150835l-1.0207 -1.02069 -0.000590551 -0.000606299c-0.0416535,-0.0416535 -0.109197,-0.0416535 -0.15085,0l7.87402e-006 7.87402e-006 -1.32768 1.32768z"/>
   <path id="_554256544" class="fil0" d="M3.30114 3.30125c-0.0416496,0.0416496 -0.0416496,0.109185 0,0.150835 0.0416496,0.0416496 0.109185,0.0416496 0.150835,0l0.866217 -0.866217 0.945878 0.945874c0.0416496,0.0416496 0.109185,0.0416496 0.150835,0 0.0416496,-0.0416496 0.0416496,-0.109185 0,-0.150835l-1.0207 -1.02069 -0.000590551 -0.000606299c-0.0416535,-0.0416535 -0.109197,-0.0416535 -0.15085,0l7.87402e-006 7.87402e-006 -0.941634 0.941634z"/>
   <path id="_554256376" class="fil0" d="M2.20207 1.58486c0.142252,0 0.271047,0.0576693 0.36428,0.150906 0.0932362,0.0932323 0.150906,0.222028 0.150906,0.364283 0,0.142244 -0.0576693,0.271047 -0.150902,0.364283 -0.0932362,0.0932323 -0.222039,0.150902 -0.364283,0.150902 -0.142252,0 -0.271047,-0.0576693 -0.364283,-0.150902 -0.0932323,-0.0932362 -0.150902,-0.222039 -0.150902,-0.364283 0,-0.142256 0.0576693,-0.271051 0.150906,-0.364283 0.0932323,-0.0932362 0.222028,-0.150906 0.36428,-0.150906zm0.213445 0.30174c-0.0546142,-0.0546181 -0.130083,-0.0884016 -0.213445,-0.0884016 -0.0833622,0 -0.158831,0.0337835 -0.213445,0.0884016 -0.0546181,0.0546142 -0.0884016,0.130083 -0.0884016,0.213449 0,0.0833622 0.0337835,0.158831 0.0883976,0.213449 0.0546181,0.0546142 0.130087,0.0883976 0.213449,0.0883976 0.0833622,0 0.158831,-0.0337835 0.213449,-0.0883976 0.0546142,-0.0546181 0.0883976,-0.130087 0.0883976,-0.213449 0,-0.0833661 -0.0337835,-0.158835 -0.0884016,-0.213449z"/>
   <path id="_554256496" class="fil0" d="M3.55729 4.95514l0.617835 0.752291 -0.160606 0.132071 -0.616445 -0.750606 -0.228232 0.420917 -0.125764 0.231937 -0.0666417 -0.255583 -0.353209 -1.35466 -0.0565866 -0.217035 0.20211 0.0971929 1.25495 0.60348 0.234323 0.112677 -0.247366 0.0801339 -0.454366 0.147181zm0.143406 -0.265165l-0.818512 -0.393602 0.229984 0.882039 0.176201 -0.324957 0.0196772 -0.0362913 0.0402441 -0.0130354 0.352406 -0.114154z"/>
  </g>
 </g>
 <rect class="fil1" width="6.82666" height="6.82666"/>
</svg>
