<svg xmlns="http://www.w3.org/2000/svg" viewBox="0 0 48 48"><title>03-thinking</title><g id="_03-thinking" data-name="03-thinking"><path d="M41,48H21a1,1,0,0,1-.949-.684L18.279,42H13a3,3,0,0,1-3-3V33H7a1,1,0,0,1-.857-1.515L10,25.057V22.446a16.7,16.7,0,0,1,.422-3.666A1,1,0,0,1,11.4,18H40.7a1,1,0,0,1,.98.8A16.246,16.246,0,0,1,42,22.074h0c-.016,3.378-1.24,10.63-3.628,13.878l3.577,10.732A1,1,0,0,1,41,48ZM21.721,46H39.613L36.3,36.068a1,1,0,0,1,.2-.981C38.58,32.75,39.983,25.7,40,22.065A14.116,14.116,0,0,0,39.857,20H12.217A14.345,14.345,0,0,0,12,22.446v2.887a1,1,0,0,1-.143.515L8.766,31H11a1,1,0,0,1,1,1v7a1,1,0,0,0,1,1h6a1,1,0,0,1,.949.684Z"/><path d="M17,19H15V6H13V19H11V5a1,1,0,0,1,1-1h4a1,1,0,0,1,1,1Z"/><path d="M15.105,5.447,14,3.236,12.9,5.447l-1.79-.894,2-4a1.042,1.042,0,0,1,1.79,0l2,4Z"/><rect x="13" y="1" width="2" height="4"/><rect x="12" y="9" width="4" height="2"/><path d="M26,16a8,8,0,1,1,8-8A8.009,8.009,0,0,1,26,16ZM26,2a6,6,0,1,0,6,6A6.006,6.006,0,0,0,26,2Z"/><path d="M30,8H28a2,2,0,0,0-2-2V4A4,4,0,0,1,30,8Z"/><path d="M29,20H23a1,1,0,0,1-1-1V14h2v4h4V14h2v5A1,1,0,0,1,29,20Z"/><path d="M41,19H39V2H34V0h6a1,1,0,0,1,1,1Z"/><rect x="37" y="13" width="3" height="2"/><rect x="37" y="9" width="3" height="2"/><rect x="37" y="5" width="3" height="2"/><rect x="33" y="15" width="2" height="4"/></g></svg>