<?xml version="1.0" encoding="utf-8"?>
<!-- Generator: Adobe Illustrator 19.2.0, SVG Export Plug-In . SVG Version: 6.00 Build 0)  -->
<svg version="1.1" id="Layer_1" xmlns="http://www.w3.org/2000/svg" xmlns:xlink="http://www.w3.org/1999/xlink" x="0px" y="0px"
	 viewBox="0 0 500 500" style="enable-background:new 0 0 500 500;" xml:space="preserve">
<style type="text/css">
	.st0{fill:#ECF4F7;}
	.st1{fill:#1C1D21;}
	.st2{fill:#83E1E5;}
	.st3{fill:#AAB1BA;}
	.st4{fill:none;stroke:#1C1D21;stroke-width:10;stroke-linecap:round;stroke-linejoin:round;stroke-miterlimit:10;}
	.st5{fill:#FDDF7F;}
	.st6{fill:#FFFFFF;}
</style>
<g>
	<g>
		<g>
			<g>
				<path class="st0" d="M426.7,113.6l12.4-1.9c6.8-1,12.7-5.3,15.8-11.4l19.2-37.8l-17.4-17.4l-37.8,19.2
					c-6.1,3.1-10.4,9-11.4,15.8l-1.9,12.4c-0.9,5.8,1.1,11.7,5.2,15.9l0,0C415,112.5,420.9,114.4,426.7,113.6z"/>
			</g>
		</g>
		<g>
			<g>
				<path class="st1" d="M424,118.8c-6.2,0-12.2-2.5-16.7-6.9c-5.3-5.3-7.7-12.8-6.6-20.2l1.9-12.4c1.3-8.4,6.5-15.7,14.1-19.5
					l37.8-19.2c1.9-1,4.3-0.6,5.8,0.9l17.4,17.4c1.5,1.5,1.9,3.9,0.9,5.8l-19.2,37.8c-3.8,7.6-11.1,12.8-19.5,14.1l-12.4,1.9
					c0,0,0,0,0,0C426.3,118.7,425.1,118.8,424,118.8z M426.7,113.6L426.7,113.6L426.7,113.6z M455.7,51.2l-34.5,17.5
					c-4.7,2.4-8,6.9-8.7,12.1l-1.9,12.4c-0.6,4.2,0.8,8.6,3.8,11.6c3,3,7.4,4.5,11.6,3.8l12.4-1.9c5.2-0.8,9.7-4.1,12.1-8.7
					L468,63.4L455.7,51.2z"/>
			</g>
		</g>
		<g>
			<g>
				<g>
					<path class="st5" d="M199,379.1l-59-59l21.4-21.4c5.4-5.4,14.1-5.4,19.5,0l39.5,39.5c5.4,5.4,5.4,14.1,0,19.5L199,379.1z"/>
				</g>
			</g>
		</g>
		<g>
			<g>
				<g>
					<path class="st1" d="M199,384.1c-1.3,0-2.6-0.5-3.5-1.5l-59-59c-0.9-0.9-1.5-2.2-1.5-3.5c0-1.3,0.5-2.6,1.5-3.5l21.4-21.4
						c3.5-3.6,8.3-5.5,13.3-5.5c5,0,9.7,2,13.3,5.5l39.5,39.5c7.3,7.3,7.3,19.3,0,26.6l-21.4,21.4
						C201.6,383.6,200.4,384.1,199,384.1z M147.1,320.1l51.9,51.9l17.9-17.9c1.7-1.7,2.6-3.9,2.6-6.2s-0.9-4.6-2.6-6.2l-39.5-39.5
						c-1.7-1.7-3.9-2.6-6.2-2.6s-4.6,0.9-6.2,2.6L147.1,320.1z"/>
				</g>
			</g>
		</g>
		<g>
			<g>
				<path class="st2" d="M187.5,379c7.2-1,11.6,0.2,11.6,0.2l-59-59c0,0,1.1,4.4,0.2,11.6c-2.2,16.2-15.8,28.2-32.1,29.8
					c-6.5,0.6-12.8,3.5-17.8,8.4l-55.7,55.7c-11.5,11.5-11.5,30,0,41.5l17.5,17.5c11.5,11.5,30,11.5,41.5,0l35.6-35.6
					c5-5,27.9-31.5,28.6-38C159.3,394.8,171.2,381.2,187.5,379z"/>
			</g>
		</g>
		<g>
			<g>
				<path class="st1" d="M72.8,498.2c-9.2,0-17.8-3.6-24.3-10.1L31,470.6c-13.4-13.4-13.4-35.2,0-48.5l55.7-55.7
					c5.6-5.6,13-9.1,20.9-9.9c14.4-1.4,25.8-11.9,27.7-25.5c0.8-6,0-9.6-0.1-9.7c-0.5-2.2,0.5-4.5,2.4-5.6c2-1.1,4.4-0.8,6,0.8
					l59,59c1.6,1.6,1.9,4.1,0.8,6c-1.1,2-3.4,2.9-5.6,2.4l0,0c0,0-3.7-0.9-9.6,0l0,0c-13.6,1.8-24,13.2-25.5,27.7
					c-1,9.7-29.7,40.7-30,41l-35.6,35.6C90.6,494.6,82,498.2,72.8,498.2z M145.1,332.3C145.1,332.3,145.1,332.3,145.1,332.3
					c-2.5,18.2-17.5,32.2-36.6,34.1c-5.6,0.6-10.7,3-14.8,7l-55.7,55.7c-9.5,9.5-9.5,24.9,0,34.4l17.5,17.5c9.5,9.5,24.9,9.5,34.4,0
					l35.6-35.6c6.6-6.6,26-29.9,27.1-35c1.9-19,15.9-34,34.1-36.5c0,0,0,0,0,0c0,0,0,0,0,0L145.1,332.3z M152.7,410.6
					C152.7,410.6,152.7,410.6,152.7,410.6C152.7,410.6,152.7,410.6,152.7,410.6z"/>
			</g>
		</g>
		<g>
			<g>
				<path class="st1" d="M43.3,480.8c-1.3,0-2.6-0.5-3.5-1.5c-2-2-2-5.1,0-7.1l26.4-26.4c2-2,5.1-2,7.1,0c2,2,2,5.1,0,7.1
					l-26.4,26.4C45.9,480.4,44.6,480.8,43.3,480.8z"/>
			</g>
		</g>
		<g>
			<g>
				<path class="st1" d="M87.9,436.3c-1.3,0-2.6-0.5-3.5-1.5c-2-2-2-5.1,0-7.1l35.9-35.9c2-2,5.1-2,7.1,0c2,2,2,5.1,0,7.1
					l-35.9,35.9C90.4,435.8,89.1,436.3,87.9,436.3z"/>
			</g>
		</g>
		<g>
			<g>
				<path class="st1" d="M139.1,385c-1.3,0-2.6-0.5-3.5-1.5c-2-2-2-5.1,0-7.1l4.8-4.8c2-2,5.1-2,7.1,0c2,2,2,5.1,0,7.1l-4.8,4.8
					C141.7,384.5,140.4,385,139.1,385z"/>
			</g>
		</g>
		<g>
			<g>
				<path class="st1" d="M200.7,323.5c-1.3,0-2.6-0.5-3.5-1.5c-2-2-2-5.1,0-7.1l210.1-210.1c2-2,5.1-2,7.1,0c2,2,2,5.1,0,7.1
					L204.2,322C203.2,323,202,323.5,200.7,323.5z"/>
			</g>
		</g>
	</g>
	<g>
		<g>
			<g>
				<path class="st0" d="M126.6,38.7L98.8,10.9C91,3,78.2,3,70.3,10.9l0,0c-7.9,7.9-7.9,20.6,0,28.5l17.2,17.2
					c4.6,4.6,6.9,10.9,6.3,17.4l0,0c-0.9,10.6-9.3,19-19.9,19.9l0,0c-6.5,0.6-12.8-1.8-17.4-6.3L39.4,70.3c-7.9-7.9-20.6-7.9-28.5,0
					l0,0C3,78.2,3,91,10.9,98.8l27.8,27.8c4.1,4.1,9.7,6.4,15.5,6.4H85c5.8,0,11.4,2.3,15.5,6.4l260.1,260.1
					c4.1,4.1,6.4,9.7,6.4,15.5v30.8c0,5.8,2.3,11.4,6.4,15.5l27.8,27.8c7.9,7.9,20.6,7.9,28.5,0l0,0c7.9-7.9,7.9-20.6,0-28.5
					l-17.2-17.2c-4.6-4.6-6.9-10.9-6.3-17.4l0,0c0.9-10.6,9.3-19,19.9-19.9l0,0c6.5-0.6,12.8,1.8,17.4,6.3l17.2,17.2
					c7.9,7.9,20.6,7.9,28.5,0l0,0c7.9-7.9,7.9-20.6,0-28.5l-27.8-27.8c-4.1-4.1-9.7-6.4-15.5-6.4H415c-5.8,0-11.4-2.3-15.5-6.4
					L139.5,100.5c-4.1-4.1-6.4-9.7-6.4-15.5V54.2C133,48.4,130.7,42.8,126.6,38.7z"/>
			</g>
		</g>
		<g>
			<g>
				<path class="st1" d="M415.4,500c-6.7,0-13-2.6-17.8-7.4l-27.8-27.8c-5.1-5.1-7.9-11.8-7.9-19V415c0-4.5-1.8-8.8-5-12L97,143
					c-3.2-3.2-7.4-5-12-5H54.2c-7.2,0-13.9-2.8-19-7.9L7.4,102.4C2.6,97.6,0,91.3,0,84.6s2.6-13,7.4-17.8c4.7-4.7,11.1-7.4,17.8-7.4
					c6.7,0,13,2.6,17.8,7.4L60.1,84c3.5,3.5,8.4,5.3,13.4,4.9c8.2-0.7,14.6-7.2,15.4-15.4c0.4-5-1.3-9.9-4.9-13.4L66.8,42.9
					c-4.7-4.7-7.4-11.1-7.4-17.8c0-6.7,2.6-13,7.4-17.8C71.6,2.6,77.9,0,84.6,0s13,2.6,17.8,7.4l27.8,27.8v0v0
					c5.1,5.1,7.9,11.8,7.9,19V85c0,4.5,1.8,8.8,5,12L403,357c3.2,3.2,7.4,5,12,5h30.8c7.2,0,13.9,2.8,19,7.9l27.8,27.8
					c4.7,4.7,7.4,11.1,7.4,17.8s-2.6,13-7.4,17.8c-4.7,4.7-11.1,7.4-17.8,7.4c-6.7,0-13-2.6-17.8-7.4L439.9,416
					c-3.5-3.5-8.4-5.3-13.4-4.9c-8.2,0.7-14.6,7.2-15.4,15.4c-0.4,5,1.3,9.9,4.9,13.4l17.2,17.2c4.7,4.7,7.4,11.1,7.4,17.8
					c0,6.7-2.6,13-7.4,17.8C428.4,497.4,422.1,500,415.4,500z M25.1,69.4c-4,0-7.8,1.6-10.7,4.4c-2.9,2.9-4.4,6.7-4.4,10.7
					s1.6,7.8,4.4,10.7l27.8,27.8c3.2,3.2,7.4,4.9,12,4.9H85c7.2,0,13.9,2.8,19,7.9L364.1,396c5.1,5.1,7.9,11.8,7.9,19v30.8
					c0,4.5,1.8,8.8,4.9,12l27.8,27.8c2.9,2.9,6.7,4.4,10.7,4.4c4,0,7.8-1.6,10.7-4.4c2.9-2.9,4.4-6.7,4.4-10.7c0-4-1.6-7.8-4.4-10.7
					L408.9,447c-5.6-5.6-8.5-13.4-7.8-21.4c1.1-13,11.4-23.3,24.4-24.4c7.9-0.7,15.7,2.1,21.4,7.8l17.2,17.2
					c2.9,2.9,6.7,4.4,10.7,4.4c4,0,7.8-1.6,10.7-4.4c2.9-2.9,4.4-6.7,4.4-10.7c0-4-1.6-7.8-4.4-10.7l-27.8-27.8
					c-3.2-3.2-7.4-4.9-12-4.9H415c-7.2,0-13.9-2.8-19-7.9L135.9,104c-5.1-5.1-7.9-11.8-7.9-19V54.2c0-4.5-1.8-8.8-4.9-12v0
					L95.3,14.4c-2.9-2.9-6.7-4.4-10.7-4.4s-7.8,1.6-10.7,4.4c-2.9,2.9-4.4,6.7-4.4,10.7c0,4,1.6,7.8,4.4,10.7L91.1,53
					c5.6,5.6,8.5,13.4,7.8,21.4c-1.1,13-11.4,23.3-24.4,24.4c-7.9,0.7-15.7-2.1-21.4-7.8L35.8,73.9C33,71,29.2,69.4,25.1,69.4z"/>
			</g>
		</g>
	</g>
</g>
</svg>
