<?xml version="1.0" encoding="utf-8"?>
<!-- Generator: Adobe Illustrator 16.0.0, SVG Export Plug-In . SVG Version: 6.00 Build 0)  -->
<!DOCTYPE svg PUBLIC "-//W3C//DTD SVG 1.1//EN" "http://www.w3.org/Graphics/SVG/1.1/DTD/svg11.dtd">
<svg version="1.1" id="Layer_1" xmlns="http://www.w3.org/2000/svg" xmlns:xlink="http://www.w3.org/1999/xlink" x="0px" y="0px"
	 width="128px" height="128px" viewBox="0 0 128 128" enable-background="new 0 0 128 128" xml:space="preserve">
<g>
	<g>
		<g>
			<g>
				<path fill="none" stroke="#282D33" stroke-width="4" d="M59.621,97.124"/>
			</g>
		</g>
		<g>
			<path fill="#282D33" d="M59.636,105.579c-9.274,0-17.98-3.652-24.513-10.281C21.631,81.627,21.625,59.364,35.11,45.673
				c6.513-6.609,15.192-10.264,24.439-10.289c9.337,0,18.032,3.651,24.561,10.28c6.527,6.612,10.126,15.425,10.132,24.812
				c0.006,9.379-3.586,18.193-10.115,24.82c-6.519,6.609-15.193,10.262-24.427,10.283H59.636z M59.627,39.382
				c-8.239,0.022-15.911,3.253-21.669,9.097C25.997,60.621,26.003,80.365,37.97,92.491c5.776,5.862,13.47,9.091,21.666,9.091v1.998
				l0.056-1.998c8.158-0.02,15.826-3.248,21.589-9.092c5.786-5.874,8.971-13.691,8.965-22.013
				c-0.006-8.33-3.195-16.145-8.981-22.007C75.491,42.609,67.808,39.382,59.627,39.382z"/>
		</g>
		<g>
			<g>
				<path fill="#282D33" d="M59.602,92.119c-5.7,0-11.061-2.256-15.096-6.35c-4.027-4.087-6.244-9.514-6.243-15.278
					c0-5.75,2.211-11.169,6.223-15.256c4.04-4.116,9.412-6.385,15.126-6.386c5.713,0,11.077,2.257,15.111,6.354
					c4.027,4.079,6.25,9.505,6.256,15.274c0.003,5.753-2.207,11.17-6.222,15.254c-4.04,4.115-9.417,6.385-15.137,6.387H59.602z
					 M59.619,52.847c-4.639,0.001-8.998,1.844-12.28,5.189c-3.275,3.335-5.078,7.759-5.078,12.456
					c-0.002,4.708,1.808,9.137,5.093,12.472c3.277,3.326,7.627,5.157,12.248,5.157v1.999l0.016-1.999
					c4.641-0.002,9.004-1.845,12.289-5.19c3.275-3.332,5.078-7.753,5.075-12.449c-0.005-4.712-1.817-9.142-5.104-12.471
					C68.597,54.68,64.244,52.847,59.619,52.847z"/>
			</g>
		</g>
	</g>
	<g>
		<path fill="#282D33" d="M124.729,62.133c-16.716-23.79-38.813-36.892-62.224-36.892v-3.998c24.749,0,48.009,13.706,65.494,38.591
			L124.729,62.133z"/>
	</g>
	<g>
		<path fill="#282D33" d="M59.954,106.757c-22.22,0-43.225-12.479-59.146-35.14L0,70.469l0.808-1.148
			c15.921-22.659,36.926-35.138,59.146-35.138s43.227,12.479,59.147,35.138l0.808,1.148l-0.808,1.148
			C103.183,94.277,82.176,106.757,59.954,106.757z M4.897,70.469c15.044,20.837,34.55,32.291,55.057,32.291
			c20.509,0,40.016-11.454,55.059-32.291C99.969,49.633,80.462,38.18,59.954,38.18S19.94,49.633,4.897,70.469z"/>
	</g>
</g>
</svg>
